<svg width="520" height="109" viewBox="0 0 520 109" fill="none" xmlns="http://www.w3.org/2000/svg">
<path d="M131.84 43.92L121.88 72H113.32L103.36 43.92H110.64L117.6 65.12L124.6 43.92H131.84ZM136.939 47.36C135.739 47.36 134.752 47.0133 133.979 46.32C133.232 45.6 132.859 44.72 132.859 43.68C132.859 42.6133 133.232 41.7333 133.979 41.04C134.752 40.32 135.739 39.96 136.939 39.96C138.112 39.96 139.072 40.32 139.819 41.04C140.592 41.7333 140.979 42.6133 140.979 43.68C140.979 44.72 140.592 45.6 139.819 46.32C139.072 47.0133 138.112 47.36 136.939 47.36ZM140.339 49.68V72H133.499V49.68H140.339ZM157.296 72L153.016 65.8L149.416 72H142.016L149.376 60.6L141.816 49.68H149.496L153.776 55.84L157.376 49.68H164.776L157.296 60.92L164.976 72H157.296ZM165.051 60.8C165.051 58.5067 165.478 56.4933 166.331 54.76C167.211 53.0267 168.398 51.6933 169.891 50.76C171.385 49.8267 173.051 49.36 174.891 49.36C176.465 49.36 177.838 49.68 179.011 50.32C180.211 50.96 181.131 51.8 181.771 52.84V49.68H188.611V72H181.771V68.84C181.105 69.88 180.171 70.72 178.971 71.36C177.798 72 176.425 72.32 174.851 72.32C173.038 72.32 171.385 71.8533 169.891 70.92C168.398 69.96 167.211 68.6133 166.331 66.88C165.478 65.12 165.051 63.0933 165.051 60.8ZM181.771 60.84C181.771 59.1333 181.291 57.7867 180.331 56.8C179.398 55.8133 178.251 55.32 176.891 55.32C175.531 55.32 174.371 55.8133 173.411 56.8C172.478 57.76 172.011 59.0933 172.011 60.8C172.011 62.5067 172.478 63.8667 173.411 64.88C174.371 65.8667 175.531 66.36 176.891 66.36C178.251 66.36 179.398 65.8667 180.331 64.88C181.291 63.8933 181.771 62.5467 181.771 60.84ZM204.8 66.2V72H201.32C198.84 72 196.906 71.4 195.52 70.2C194.133 68.9733 193.44 66.9867 193.44 64.24V55.36H190.72V49.68H193.44V44.24H200.28V49.68H204.76V55.36H200.28V64.32C200.28 64.9867 200.44 65.4667 200.76 65.76C201.08 66.0533 201.613 66.2 202.36 66.2H204.8ZM210.85 47.36C209.65 47.36 208.663 47.0133 207.89 46.32C207.143 45.6 206.77 44.72 206.77 43.68C206.77 42.6133 207.143 41.7333 207.89 41.04C208.663 40.32 209.65 39.96 210.85 39.96C212.023 39.96 212.983 40.32 213.73 41.04C214.503 41.7333 214.89 42.6133 214.89 43.68C214.89 44.72 214.503 45.6 213.73 46.32C212.983 47.0133 212.023 47.36 210.85 47.36ZM214.25 49.68V72H207.41V49.68H214.25ZM216.647 60.84C216.647 58.52 217.113 56.4933 218.047 54.76C219.007 53.0267 220.327 51.6933 222.007 50.76C223.713 49.8267 225.66 49.36 227.847 49.36C230.647 49.36 232.98 50.0933 234.847 51.56C236.74 53.0267 237.98 55.0933 238.567 57.76H231.287C230.673 56.0533 229.487 55.2 227.727 55.2C226.473 55.2 225.473 55.6933 224.727 56.68C223.98 57.64 223.607 59.0267 223.607 60.84C223.607 62.6533 223.98 64.0533 224.727 65.04C225.473 66 226.473 66.48 227.727 66.48C229.487 66.48 230.673 65.6267 231.287 63.92H238.567C237.98 66.5333 236.74 68.5867 234.847 70.08C232.953 71.5733 230.62 72.32 227.847 72.32C225.66 72.32 223.713 71.8533 222.007 70.92C220.327 69.9867 219.007 68.6533 218.047 66.92C217.113 65.1867 216.647 63.16 216.647 60.84ZM239.665 60.8C239.665 58.5067 240.092 56.4933 240.945 54.76C241.825 53.0267 243.012 51.6933 244.505 50.76C245.999 49.8267 247.665 49.36 249.505 49.36C251.079 49.36 252.452 49.68 253.625 50.32C254.825 50.96 255.745 51.8 256.385 52.84V49.68H263.225V72H256.385V68.84C255.719 69.88 254.785 70.72 253.585 71.36C252.412 72 251.039 72.32 249.465 72.32C247.652 72.32 245.999 71.8533 244.505 70.92C243.012 69.96 241.825 68.6133 240.945 66.88C240.092 65.12 239.665 63.0933 239.665 60.8ZM256.385 60.84C256.385 59.1333 255.905 57.7867 254.945 56.8C254.012 55.8133 252.865 55.32 251.505 55.32C250.145 55.32 248.985 55.8133 248.025 56.8C247.092 57.76 246.625 59.0933 246.625 60.8C246.625 62.5067 247.092 63.8667 248.025 64.88C248.985 65.8667 250.145 66.36 251.505 66.36C252.865 66.36 254.012 65.8667 254.945 64.88C255.905 63.8933 256.385 62.5467 256.385 60.84ZM281.09 43.92V72H274.25V43.92H281.09ZM283.487 60.84C283.487 58.52 283.954 56.4933 284.887 54.76C285.847 53.0267 287.167 51.6933 288.847 50.76C290.554 49.8267 292.501 49.36 294.687 49.36C297.487 49.36 299.821 50.0933 301.687 51.56C303.581 53.0267 304.821 55.0933 305.407 57.76H298.127C297.514 56.0533 296.327 55.2 294.567 55.2C293.314 55.2 292.314 55.6933 291.567 56.68C290.821 57.64 290.447 59.0267 290.447 60.84C290.447 62.6533 290.821 64.0533 291.567 65.04C292.314 66 293.314 66.48 294.567 66.48C296.327 66.48 297.514 65.6267 298.127 63.92H305.407C304.821 66.5333 303.581 68.5867 301.687 70.08C299.794 71.5733 297.461 72.32 294.687 72.32C292.501 72.32 290.554 71.8533 288.847 70.92C287.167 69.9867 285.847 68.6533 284.887 66.92C283.954 65.1867 283.487 63.16 283.487 60.84ZM318.026 72.32C315.839 72.32 313.866 71.8533 312.106 70.92C310.373 69.9867 308.999 68.6533 307.986 66.92C306.999 65.1867 306.506 63.16 306.506 60.84C306.506 58.5467 307.013 56.5333 308.026 54.8C309.039 53.04 310.426 51.6933 312.186 50.76C313.946 49.8267 315.919 49.36 318.106 49.36C320.293 49.36 322.266 49.8267 324.026 50.76C325.786 51.6933 327.173 53.04 328.186 54.8C329.199 56.5333 329.706 58.5467 329.706 60.84C329.706 63.1333 329.186 65.16 328.146 66.92C327.133 68.6533 325.733 69.9867 323.946 70.92C322.186 71.8533 320.213 72.32 318.026 72.32ZM318.026 66.4C319.333 66.4 320.439 65.92 321.346 64.96C322.279 64 322.746 62.6267 322.746 60.84C322.746 59.0533 322.293 57.68 321.386 56.72C320.506 55.76 319.413 55.28 318.106 55.28C316.773 55.28 315.666 55.76 314.786 56.72C313.906 57.6533 313.466 59.0267 313.466 60.84C313.466 62.6267 313.893 64 314.746 64.96C315.626 65.92 316.719 66.4 318.026 66.4ZM345.735 49.44C348.348 49.44 350.428 50.2933 351.975 52C353.548 53.68 354.335 56 354.335 58.96V72H347.535V59.88C347.535 58.3867 347.148 57.2267 346.375 56.4C345.601 55.5733 344.561 55.16 343.255 55.16C341.948 55.16 340.908 55.5733 340.135 56.4C339.361 57.2267 338.975 58.3867 338.975 59.88V72H332.135V49.68H338.975V52.64C339.668 51.6533 340.601 50.88 341.775 50.32C342.948 49.7333 344.268 49.44 345.735 49.44ZM372.004 66.72H380.964V72H365.164V43.92H372.004V66.72ZM386.467 47.36C385.267 47.36 384.28 47.0133 383.507 46.32C382.76 45.6 382.387 44.72 382.387 43.68C382.387 42.6133 382.76 41.7333 383.507 41.04C384.28 40.32 385.267 39.96 386.467 39.96C387.64 39.96 388.6 40.32 389.347 41.04C390.12 41.7333 390.507 42.6133 390.507 43.68C390.507 44.72 390.12 45.6 389.347 46.32C388.6 47.0133 387.64 47.36 386.467 47.36ZM389.867 49.68V72H383.027V49.68H389.867ZM400.464 52.84C401.104 51.8 402.024 50.96 403.224 50.32C404.424 49.68 405.797 49.36 407.344 49.36C409.184 49.36 410.85 49.8267 412.344 50.76C413.837 51.6933 415.01 53.0267 415.864 54.76C416.744 56.4933 417.184 58.5067 417.184 60.8C417.184 63.0933 416.744 65.12 415.864 66.88C415.01 68.6133 413.837 69.96 412.344 70.92C410.85 71.8533 409.184 72.32 407.344 72.32C405.77 72.32 404.397 72.0133 403.224 71.4C402.05 70.76 401.13 69.92 400.464 68.88V72H393.624V42.4H400.464V52.84ZM410.224 60.8C410.224 59.0933 409.744 57.76 408.784 56.8C407.85 55.8133 406.69 55.32 405.304 55.32C403.944 55.32 402.784 55.8133 401.824 56.8C400.89 57.7867 400.424 59.1333 400.424 60.84C400.424 62.5467 400.89 63.8933 401.824 64.88C402.784 65.8667 403.944 66.36 405.304 66.36C406.664 66.36 407.824 65.8667 408.784 64.88C409.744 63.8667 410.224 62.5067 410.224 60.8ZM426.412 53.4C427.212 52.1733 428.212 51.2133 429.412 50.52C430.612 49.8 431.946 49.44 433.412 49.44V56.68H431.532C429.826 56.68 428.546 57.0533 427.692 57.8C426.839 58.52 426.412 59.8 426.412 61.64V72H419.572V49.68H426.412V53.4ZM434.122 60.8C434.122 58.5067 434.548 56.4933 435.402 54.76C436.282 53.0267 437.468 51.6933 438.962 50.76C440.455 49.8267 442.122 49.36 443.962 49.36C445.535 49.36 446.908 49.68 448.082 50.32C449.282 50.96 450.202 51.8 450.842 52.84V49.68H457.682V72H450.842V68.84C450.175 69.88 449.242 70.72 448.042 71.36C446.868 72 445.495 72.32 443.922 72.32C442.108 72.32 440.455 71.8533 438.962 70.92C437.468 69.96 436.282 68.6133 435.402 66.88C434.548 65.12 434.122 63.0933 434.122 60.8ZM450.842 60.84C450.842 59.1333 450.362 57.7867 449.402 56.8C448.468 55.8133 447.322 55.32 445.962 55.32C444.602 55.32 443.442 55.8133 442.482 56.8C441.548 57.76 441.082 59.0933 441.082 60.8C441.082 62.5067 441.548 63.8667 442.482 64.88C443.442 65.8667 444.602 66.36 445.962 66.36C447.322 66.36 448.468 65.8667 449.402 64.88C450.362 63.8933 450.842 62.5467 450.842 60.84ZM468.27 53.4C469.07 52.1733 470.07 51.2133 471.27 50.52C472.47 49.8 473.803 49.44 475.27 49.44V56.68H473.39C471.683 56.68 470.403 57.0533 469.55 57.8C468.697 58.52 468.27 59.8 468.27 61.64V72H461.43V49.68H468.27V53.4ZM500.139 49.68L486.139 82.6H478.779L483.899 71.24L474.819 49.68H482.459L487.619 63.64L492.739 49.68H500.139Z" fill="black"/>
<path fill-rule="evenodd" clip-rule="evenodd" d="M87.9307 87.9093C87.9307 85.451 90.1023 83.4581 92.7811 83.4581H98.44C101.119 83.4581 103.29 85.451 103.29 87.9093C103.29 90.3676 101.119 92.3605 98.44 92.3605H92.7811C90.1023 92.3605 87.9307 90.3676 87.9307 87.9093Z" fill="#F9C034"/>
<path fill-rule="evenodd" clip-rule="evenodd" d="M62.5275 66.5438C59.8425 68.3613 58.4106 69.683 56.2626 73.6483L48.7448 69.8482C51.0717 65.0568 53.3987 62.7437 57.6946 59.9349C61.8115 57.4566 65.3914 55.9696 73.4462 55.8044L73.2672 63.9003C67.3604 63.9003 65.0334 65.222 62.5275 66.5438Z" fill="#F9C034"/>
<path fill-rule="evenodd" clip-rule="evenodd" d="M83.2282 83.9877C83.2282 90.4403 75.6607 94.4731 69.6067 91.2469L18.7332 64.1353C12.6792 60.909 12.6792 52.8433 18.7332 49.617L69.6067 22.5054C75.6607 19.2792 83.2281 23.312 83.2282 29.7646L83.2282 83.9877ZM72.9488 82.4692C73.1178 82.5592 73.3216 82.4506 73.3216 82.2705L73.3216 31.5065C73.3216 31.3208 73.1063 31.1992 72.9372 31.2893L25.3092 56.6713C25.1401 56.7614 25.1466 56.9943 25.3208 57.0872L72.9488 82.4692Z" fill="#F9C034"/>
<path d="M44.9669 21.6504C47.3395 25.4436 45.9315 30.2939 41.8221 32.4839C37.7127 34.6739 32.458 33.3742 30.0855 29.5811C27.7129 25.7879 29.1209 20.9376 33.2303 18.7476C37.3397 16.5576 42.5943 17.8573 44.9669 21.6504Z" fill="#F9C034"/>
</svg>
