<svg xmlns="http://www.w3.org/2000/svg" width="24" height="24" fill="none"><path d="M10.36 3.325a.783.783 0 0 0-.354.335c-.06.109-.067.446-.077 3.534l-.012 3.414-.088-.021c-.049-.012-.746-.14-1.549-.284a287.63 287.63 0 0 1-1.54-.281c-.044-.01-.233-.212-.42-.447-.462-.583-1.313-1.459-1.689-1.739-.422-.313-.686-.409-1.064-.386-.431.027-.658.232-.707.642-.013.114-.019 1.198-.012 2.408l.012 2.2.093.15a.875.875 0 0 0 .26.246c.327.188 7.818 2.436 11.131 3.34a73.12 73.12 0 0 0 3.338.83c.714.15 1.415.157 1.898.02.742-.211 1.244-.653 1.463-1.289.122-.354.123-.983.002-1.36-.221-.692-.827-1.279-1.647-1.595-.175-.068-1.084-.291-2.094-.514a60.886 60.886 0 0 1-1.804-.415c-.011-.011-.533-1.69-1.161-3.732-.627-2.041-1.169-3.773-1.205-3.847-.101-.215-.251-.312-1.225-.797-.9-.448-.923-.457-1.184-.454-.146.001-.31.02-.365.042M3.863 19.122c-.372.063-.544.265-.573.674-.024.328.039.601.165.719.232.218-.304.205 8.555.205h8.173l.179-.09c.272-.137.368-.353.348-.781-.023-.475-.176-.658-.61-.729-.295-.049-15.948-.046-16.237.002" fill-rule="evenodd" fill="#666"/></svg>