<svg xmlns="http://www.w3.org/2000/svg" width="1000" height="1000" viewBox="0 0 24 24">
    <path
        d="M10.1 2.066c-.619.132-1.303.529-1.756 1.019-.23.248-.327.408-.745 1.236-.557 1.104-.691 1.282-1.134 1.5-.26.129-.337.147-.78.18-.621.047-1.083.157-1.514.359-1.248.584-2.084 1.81-2.157 3.16-.017.319.433 7.941.53 8.96.107 1.131.565 2.094 1.28 2.688.476.396 1.231.696 1.988.791.43.054 11.491.054 11.908 0 .491-.064.915-.19 1.357-.405.371-.18.459-.245.8-.588.211-.212.443-.488.516-.613.286-.489.487-1.132.567-1.813.084-.72.567-8.72.546-9.044-.088-1.359-.937-2.574-2.212-3.162-.383-.178-.843-.282-1.453-.331-.448-.036-.53-.055-.784-.181-.449-.221-.585-.398-1.1-1.427-.246-.492-.525-.996-.621-1.12a3.449 3.449 0 0 0-1.944-1.212c-.432-.088-2.874-.086-3.292.003m2.136 6.257c.424.054.861.17 1.333.354.431.169 1.147.576 1.452.826l.179.147v-.279c0-.598.223-.852.749-.85.317.001.544.109.645.306.072.143.079.257.09 1.573.013 1.556.012 1.567-.228 1.756-.196.154-.374.172-1.613.157-1.118-.013-1.192-.019-1.343-.1-.24-.128-.32-.292-.32-.653 0-.523.186-.712.739-.749l.318-.022-.169-.128c-.456-.346-1.018-.613-1.667-.792-.249-.068-.423-.083-1.001-.086-.617-.002-.738.008-1.018.089-.712.206-1.253.519-1.742 1.008-.683.684-1.037 1.476-1.122 2.515-.05.602-.11.737-.392.883-.149.078-.624.062-.772-.024-.302-.177-.372-.417-.313-1.084.166-1.901 1.199-3.453 2.882-4.329.97-.505 2.063-.676 3.313-.518m4.131 4.624c.24.141.292.257.307.695.045 1.32-.599 2.833-1.619 3.801a5.624 5.624 0 0 1-2.575 1.376c-.459.102-1.454.125-1.917.044-.725-.126-1.513-.476-2.174-.964a4.955 4.955 0 0 0-.369-.259c-.011 0-.02.12-.02.267 0 .508-.198.731-.676.762-.356.023-.585-.089-.712-.349-.085-.174-.088-.229-.097-1.56l-.009-1.38.106-.168c.21-.331.356-.358 1.828-.332 1.087.018 1.191.026 1.316.1.251.148.304.262.304.66 0 .298-.013.372-.084.467-.14.187-.286.246-.683.276l-.368.028.208.172c.337.281.802.54 1.238.691.393.135.431.141.989.142.649.002.897-.046 1.48-.284.46-.189.837-.444 1.222-.83.697-.696 1.056-1.505 1.134-2.556.046-.609.143-.78.495-.869.19-.049.534-.013.676.07"
        fill-rule="evenodd" fill="#666666" />
</svg>