<svg width="24" height="24" viewBox="0 0 24 24" fill="none" xmlns="http://www.w3.org/2000/svg">
<path d="M7.76472 5.91647C7.77175 6.2205 7.71795 6.52287 7.60647 6.80582C7.49499 7.08876 7.32807 7.34656 7.11554 7.56408C6.90301 7.78159 6.64914 7.95443 6.36886 8.07243C6.08858 8.19043 5.78755 8.25122 5.48344 8.25122C5.17933 8.25122 4.8783 8.19043 4.59802 8.07243C4.31774 7.95443 4.06387 7.78159 3.85134 7.56408C3.63881 7.34656 3.47189 7.08876 3.36041 6.80582C3.24893 6.52287 3.19513 6.2205 3.20216 5.91647C3.21196 5.31781 3.45665 4.74699 3.88347 4.32709C4.31028 3.9072 4.88502 3.67188 5.48375 3.67188C6.08247 3.67188 6.65721 3.9072 7.08403 4.32709C7.51084 4.74699 7.75553 5.31781 7.76533 5.91647H7.76472Z" fill="#666666"/>
<path fill-rule="evenodd" clip-rule="evenodd" d="M2.81226 13.4093C2.64046 13.6842 2.3665 13.8796 2.05065 13.9525C1.73479 14.0254 1.40292 13.9698 1.12804 13.798C0.853158 13.6262 0.657782 13.3522 0.584893 13.0363C0.512004 12.7205 0.567572 12.3886 0.739373 12.1137L0.741818 12.1101L0.746095 12.1033L0.760762 12.0801C0.838281 11.9579 0.917941 11.8371 0.999706 11.7177C1.19792 11.4254 1.40623 11.14 1.62426 10.8621C1.86809 10.5541 2.16754 10.2064 2.48409 9.92406C2.64237 9.78289 2.83304 9.63255 3.04876 9.51155C3.25165 9.39788 3.56882 9.25732 3.95687 9.25732H7.00998C7.39803 9.25732 7.7152 9.39788 7.9187 9.51155C8.13381 9.63255 8.32509 9.78289 8.48276 9.92406C8.79931 10.2064 9.09937 10.5541 9.34259 10.8627C9.65034 11.254 9.93853 11.6603 10.2061 12.0801L10.2214 12.1033L10.2256 12.1094L10.2275 12.1131C10.3946 12.3878 10.4467 12.7173 10.3726 13.0301C10.2984 13.343 10.104 13.6141 9.8314 13.7846C9.55882 13.9551 9.23002 14.0113 8.91627 13.941C8.60252 13.8708 8.32908 13.6798 8.1552 13.4093L8.15337 13.4069L8.14359 13.3916C8.11305 13.3434 8.08209 13.2956 8.0507 13.248V14.766L8.49253 19.4075C8.52031 19.7239 8.42385 20.0386 8.22358 20.2851C8.02331 20.5316 7.73496 20.6905 7.41959 20.7281C7.10423 20.7656 6.78663 20.679 6.53405 20.4864C6.28147 20.2939 6.11375 20.0106 6.06642 19.6966L5.44248 15.3331L4.81915 19.6966C4.77452 20.013 4.60771 20.2994 4.35446 20.4944C4.10122 20.6893 3.78169 20.7773 3.46434 20.7395C3.14699 20.7017 2.85707 20.5411 2.65671 20.2921C2.45634 20.0432 2.36147 19.7256 2.39243 19.4075L2.90576 14.0235H2.91676V13.2474C2.88522 13.2952 2.85406 13.3433 2.82326 13.3916L2.81409 13.4069L2.81226 13.4093Z" fill="#666666"/>
<path d="M19.9869 5.91591C19.9869 6.52104 19.7465 7.10138 19.3186 7.52927C18.8908 7.95716 18.3104 8.19754 17.7053 8.19754C17.1002 8.19754 16.5199 7.95716 16.092 7.52927C15.6641 7.10138 15.4237 6.52104 15.4237 5.91591C15.4237 5.31078 15.6641 4.73044 16.092 4.30255C16.5199 3.87466 17.1002 3.63428 17.7053 3.63428C18.3104 3.63428 18.8908 3.87466 19.3186 4.30255C19.7465 4.73044 19.9869 5.31078 19.9869 5.91591Z" fill="#666666"/>
<path fill-rule="evenodd" clip-rule="evenodd" d="M15.0375 13.2812C14.8646 13.5516 14.5923 13.7431 14.2795 13.8144C13.9666 13.8857 13.6382 13.831 13.3653 13.6623C13.0923 13.4936 12.8967 13.2242 12.8206 12.9125C12.7445 12.6007 12.794 12.2716 12.9585 11.9961L12.9604 11.9924L12.9653 11.9857L12.9793 11.9624L13.0313 11.8805C13.2819 11.4904 13.5496 11.1116 13.8336 10.7451C14.0744 10.4371 14.3714 10.0887 14.6843 9.80578C14.8414 9.66461 15.0308 9.51305 15.2453 9.39205C15.447 9.27716 15.7647 9.13477 16.1546 9.13477H19.1747C19.5646 9.13477 19.8824 9.27716 20.0847 9.39144C20.2986 9.51366 20.488 9.66461 20.6451 9.80578C20.9586 10.0887 21.255 10.4371 21.4957 10.7451C21.8003 11.1364 22.0854 11.5425 22.3501 11.9618L22.3647 11.9857L22.3709 11.9961C22.5414 12.2717 22.5954 12.6039 22.521 12.9194C22.4466 13.2349 22.2499 13.508 21.9742 13.6785C21.6985 13.849 21.3664 13.903 21.0509 13.8286C20.7354 13.7542 20.4624 13.5576 20.2919 13.2819L20.29 13.2788L20.2809 13.2635C20.1889 13.1187 20.0942 12.9757 19.9967 12.8345C20.2827 14.2584 20.8461 16.2116 21.1407 17.1992C21.1653 17.2794 21.1729 17.3638 21.1632 17.4471C21.1535 17.5304 21.1265 17.6108 21.0842 17.6831C21.0418 17.7555 20.9848 17.8183 20.9169 17.8675C20.849 17.9168 20.7716 17.9514 20.6897 17.9692C18.5282 18.4196 17.0151 18.408 14.6678 17.9606C14.5836 17.944 14.5038 17.9099 14.4336 17.8604C14.3635 17.8109 14.3046 17.7471 14.2608 17.6733C14.2169 17.5995 14.1892 17.5172 14.1793 17.432C14.1694 17.3467 14.1776 17.2603 14.2034 17.1784C14.512 16.1859 15.0858 14.2535 15.3577 12.7978C15.2517 12.9511 15.1486 13.1063 15.0485 13.2635L15.0394 13.2788L15.0375 13.2812ZM14.9758 19.0056V19.8294C14.976 20.0516 15.0569 20.2661 15.2034 20.4331C15.3499 20.6 15.552 20.7081 15.7722 20.7373C15.9925 20.7664 16.2158 20.7146 16.4006 20.5914C16.5855 20.4683 16.7194 20.2822 16.7774 20.0678L17.0187 19.1731C16.3355 19.1488 15.6538 19.0929 14.9758 19.0056ZM18.4316 19.1707L18.6742 20.0684C18.7322 20.2829 18.8662 20.469 19.0511 20.5921C19.236 20.7153 19.4594 20.7671 19.6797 20.7378C19.8999 20.7086 20.1021 20.6004 20.2485 20.4333C20.3949 20.2662 20.4757 20.0516 20.4758 19.8294V18.9971C19.7973 19.0851 19.1153 19.1434 18.4316 19.1707Z" fill="#666666"/>
</svg>
