<svg xmlns="http://www.w3.org/2000/svg" width="24" height="24" fill="none">
    <path
        d="M5.843 5.72c-.515.175-1.005.364-1.089.419-.194.129-.355.37-.382.573-.047.35-.088.302 2.476 2.872l2.398 2.405-1.365.945-1.366.945-.507-.06c-.28-.033-.823-.071-1.208-.084-1.362-.049-2.056.133-2.363.617-.146.229-.172.362-.116.575.041.153.234.361 1.691 1.822.904.908 1.702 1.677 1.772 1.71.237.113.47.08.871-.124 1.274-.647 5.991-3.187 8.145-4.386 3.583-1.995 5.153-2.978 5.607-3.513.446-.525.662-.992.701-1.516.043-.589-.143-1.072-.584-1.513-.665-.665-1.563-.842-2.554-.503-.424.145-.619.257-2.259 1.304-.786.502-1.438.912-1.45.912-.011 0-1.59-.832-3.509-1.849-3.385-1.794-3.496-1.849-3.73-1.859-.212-.009-.358.03-1.179.308m-1.98 13.402c-.375.063-.553.274-.576.681-.028.488.108.764.429.872.1.033 2.312.045 8.301.045h8.166l.179-.09c.272-.137.368-.353.348-.781-.023-.475-.176-.658-.61-.729-.295-.049-15.948-.046-16.237.002"
        fill-rule="evenodd" fill="#666" />
</svg>