<svg width="24" height="24" viewBox="0 0 24 24" fill="none" xmlns="http://www.w3.org/2000/svg">
<path d="M22 22.75H5C2.93 22.75 1.25 21.07 1.25 19V2C1.25 1.59 1.59 1.25 2 1.25C2.41 1.25 2.75 1.59 2.75 2V19C2.75 20.24 3.76 21.25 5 21.25H22C22.41 21.25 22.75 21.59 22.75 22C22.75 22.41 22.41 22.75 22 22.75Z" fill="#666666"/>
<path d="M5.00001 17.7498C4.83001 17.7498 4.65001 17.6898 4.51001 17.5698C4.20001 17.2998 4.16001 16.8298 4.43001 16.5098L9.02001 11.1498C9.52001 10.5698 10.24 10.2198 11 10.1898C11.76 10.1698 12.51 10.4498 13.05 10.9898L14 11.9398C14.25 12.1898 14.57 12.3098 14.93 12.3098C15.28 12.2998 15.6 12.1398 15.83 11.8698L20.42 6.50982C20.69 6.19982 21.16 6.15982 21.48 6.42982C21.79 6.69982 21.83 7.16982 21.56 7.48982L16.97 12.8498C16.47 13.4298 15.75 13.7798 14.99 13.8098C14.22 13.8298 13.48 13.5498 12.94 13.0098L12 12.0598C11.75 11.8098 11.42 11.6798 11.07 11.6898C10.72 11.6998 10.4 11.8598 10.17 12.1298L5.58001 17.4898C5.42001 17.6598 5.21001 17.7498 5.00001 17.7498Z" fill="#666666"/>
</svg>
