<svg width="24" height="24" viewBox="0 0 24 24" fill="none" xmlns="http://www.w3.org/2000/svg">
<path d="M6.36 7.77979H2V11.2498H6.36V7.77979Z" fill="#666666"/>
<path d="M6.36002 6.28988V2.12988C4.08002 2.54988 2.59002 4.01988 2.15002 6.27988H6.33002C6.34002 6.27988 6.35002 6.28988 6.36002 6.28988Z" fill="#666666"/>
<path d="M6.36 16.31V12.75H2V16.28H6.24C6.28 16.28 6.32 16.3 6.36 16.31Z" fill="#666666"/>
<path d="M21.85 6.28018C21.42 4.09018 20.02 2.65018 17.86 2.18018V6.28018H21.85Z" fill="#666666"/>
<path d="M16.36 11.25V2.01C16.31 2 16.25 2 16.19 2H7.85999V11.25H16.36Z" fill="#666666"/>
<path d="M22 12.75H17.86V16.28H22V12.75Z" fill="#666666"/>
<path d="M17.86 21.8198C20 21.3498 21.4 19.9298 21.84 17.7798H17.86V21.8198Z" fill="#666666"/>
<path d="M6.23997 17.7798H2.15997C2.61997 19.9998 4.09997 21.4498 6.35997 21.8698V17.7598C6.31997 17.7698 6.27997 17.7798 6.23997 17.7798Z" fill="#666666"/>
<path d="M22 7.77979H17.86V11.2498H22V7.77979Z" fill="#666666"/>
<path d="M7.85999 12.75V22H16.19C16.25 22 16.31 22 16.36 21.99V12.75H7.85999Z" fill="#666666"/>
</svg>
