<svg width="24" height="24" viewBox="0 0 24 24" fill="none" xmlns="http://www.w3.org/2000/svg">
<path d="M20.6 4.1V6.3C20.6 7.1 20.1 8.1 19.6 8.6L15.3 12.4C14.7 12.9 14.3 13.9 14.3 14.7V19C14.3 19.6 13.9 20.4 13.4 20.7L12 21.6C10.7 22.4 8.90001 21.5 8.90001 19.9V14.6C8.90001 13.9 8.50001 13 8.10001 12.5L7.63001 12.01C7.32001 11.68 7.26001 11.18 7.51001 10.79L12.63 2.57C12.81 2.28 13.13 2.1 13.48 2.1H18.6C19.7 2.1 20.6 3 20.6 4.1Z" fill="#666666"/>
<path d="M10.35 3.63L6.80002 9.32C6.46002 9.87 5.68002 9.95 5.23002 9.48L4.30002 8.5C3.80002 8 3.40002 7.1 3.40002 6.5V4.2C3.40002 3 4.30002 2.1 5.40002 2.1H9.50002C10.28 2.1 10.76 2.96 10.35 3.63Z" fill="#666666"/>
</svg>
