<svg width="24" height="24" viewBox="0 0 24 24" fill="none" xmlns="http://www.w3.org/2000/svg">
<path d="M2.37079 14.0738L7.25756 9.18705C7.57254 8.87207 8.11111 9.09515 8.11111 9.5406V12.7779H12.0556C12.3317 12.7779 12.5556 13.0018 12.5556 13.2779V15.6113C12.5556 15.8874 12.3317 16.1113 12.0556 16.1113H8.11111V18.8699C8.11111 19.304 7.59596 19.5318 7.27478 19.2399L2.38801 14.7973C2.17677 14.6053 2.16892 14.2757 2.37079 14.0738Z" fill="#666666"/>
<path d="M21.1848 9.74032L16.298 4.85355C15.983 4.53857 15.4444 4.76165 15.4444 5.20711V8.44444H11.5C11.2238 8.44444 11 8.6683 11 8.94444V11.2778C11 11.5539 11.2238 11.7778 11.5 11.7778H15.4444V14.5364C15.4444 14.9705 15.9596 15.1983 16.2808 14.9064L21.1675 10.4638C21.3788 10.2718 21.3866 9.94219 21.1848 9.74032Z" fill="#666666"/>
</svg>
