<svg width="24" height="24" viewBox="0 0 24 24" fill="none" xmlns="http://www.w3.org/2000/svg">
<path d="M19.69 7.34996C19.44 7.01996 18.97 6.94996 18.64 7.19996C18.31 7.44996 18.24 7.91996 18.49 8.24996C19.57 9.68996 20.14 11.37 20.14 13.11C20.14 17.6 16.49 21.25 12 21.25C7.50998 21.25 3.85998 17.6 3.85998 13.11C3.85998 8.61996 7.50998 4.97996 12 4.97996C12.58 4.97996 13.17 5.04996 13.81 5.19996C13.84 5.20996 13.87 5.19996 13.91 5.19996C13.93 5.19996 13.96 5.21996 13.98 5.21996C14.01 5.21996 14.03 5.20996 14.06 5.20996C14.1 5.20996 14.13 5.19996 14.16 5.18996C14.21 5.17996 14.26 5.15996 14.31 5.12996C14.34 5.10996 14.38 5.09996 14.41 5.07996C14.42 5.06996 14.44 5.06996 14.45 5.05996C14.48 5.03996 14.49 5.00996 14.51 4.98996C14.55 4.94996 14.58 4.91996 14.61 4.86996C14.64 4.82996 14.65 4.77996 14.67 4.73996C14.68 4.70996 14.7 4.67996 14.71 4.64996C14.71 4.62996 14.71 4.61996 14.71 4.59996C14.72 4.54996 14.72 4.49996 14.71 4.44996C14.71 4.39996 14.71 4.35996 14.7 4.30996C14.69 4.26996 14.67 4.22996 14.65 4.17996C14.63 4.12996 14.61 4.07996 14.58 4.03996C14.57 4.01996 14.57 4.00996 14.56 3.99996L12.58 1.52996C12.32 1.20996 11.85 1.15996 11.53 1.40996C11.21 1.66996 11.16 2.13996 11.41 2.45996L12.23 3.47996C12.15 3.47996 12.07 3.46996 11.99 3.46996C6.67998 3.46996 2.34998 7.78996 2.34998 13.11C2.34998 18.43 6.66997 22.75 11.99 22.75C17.31 22.75 21.63 18.43 21.63 13.11C21.64 11.04 20.96 9.04996 19.69 7.34996Z" fill="#666666"/>
<path d="M9.53998 16.6698C9.12998 16.6698 8.78998 16.3298 8.78998 15.9198V12.5298L8.59998 12.7498C8.31998 13.0598 7.84998 13.0798 7.53998 12.8098C7.22998 12.5298 7.20998 12.0598 7.47998 11.7498L8.97998 10.0798C9.18998 9.84984 9.51998 9.76984 9.80998 9.87984C10.1 9.98984 10.29 10.2698 10.29 10.5798V15.9298C10.29 16.3398 9.95998 16.6698 9.53998 16.6698Z" fill="#666666"/>
<path d="M14 16.6698C12.48 16.6698 11.25 15.4398 11.25 13.9198V12.5698C11.25 11.0498 12.48 9.81982 14 9.81982C15.52 9.81982 16.75 11.0498 16.75 12.5698V13.9198C16.75 15.4398 15.52 16.6698 14 16.6698ZM14 11.3298C13.31 11.3298 12.75 11.8898 12.75 12.5798V13.9298C12.75 14.6198 13.31 15.1798 14 15.1798C14.69 15.1798 15.25 14.6198 15.25 13.9298V12.5798C15.25 11.8898 14.69 11.3298 14 11.3298Z" fill="#666666"/>
</svg>
