<svg width="24" height="24" viewBox="0 0 24 24" fill="none" xmlns="http://www.w3.org/2000/svg">
<path d="M14.43 16.9198H12.14C11.73 16.9198 11.39 16.5798 11.39 16.1698C11.39 15.7598 11.73 15.4198 12.14 15.4198H14.43C14.86 15.4198 15.21 15.0698 15.21 14.6398C15.21 14.2098 14.86 13.8598 14.43 13.8598H12.14C11.9 13.8598 11.67 13.7398 11.53 13.5498C11.39 13.3598 11.35 13.0998 11.43 12.8698L12.19 10.5798C12.29 10.2698 12.58 10.0698 12.9 10.0698H15.96C16.37 10.0698 16.71 10.4098 16.71 10.8198C16.71 11.2298 16.37 11.5698 15.96 11.5698H13.44L13.18 12.3598H14.43C15.69 12.3598 16.71 13.3798 16.71 14.6398C16.71 15.8998 15.68 16.9198 14.43 16.9198Z" fill="#666666"/>
<path d="M9.53998 16.9198C9.12998 16.9198 8.78998 16.5798 8.78998 16.1698V12.7798L8.59998 12.9998C8.31998 13.3098 7.84998 13.3298 7.53998 13.0598C7.23998 12.7798 7.20998 12.3098 7.48998 11.9998L8.98998 10.3298C9.19998 10.0998 9.52998 10.0198 9.81998 10.1298C10.11 10.2398 10.3 10.5198 10.3 10.8298V16.1798C10.29 16.5898 9.95998 16.9198 9.53998 16.9198Z" fill="#666666"/>
<path d="M19.69 7.34978C19.44 7.01978 18.97 6.94978 18.64 7.19978C18.31 7.44978 18.24 7.91978 18.49 8.24978C19.57 9.68978 20.14 11.3698 20.14 13.1098C20.14 17.5998 16.49 21.2498 12 21.2498C7.50998 21.2498 3.85998 17.5998 3.85998 13.1098C3.85998 8.61978 7.50998 4.97978 12 4.97978C12.58 4.97978 13.17 5.04978 13.81 5.19978C13.84 5.20978 13.87 5.19978 13.9 5.19978C13.93 5.19978 13.95 5.21978 13.97 5.21978C14 5.21978 14.02 5.20978 14.05 5.20978C14.08 5.20978 14.11 5.19978 14.15 5.18978C14.21 5.17978 14.26 5.14978 14.31 5.12978C14.34 5.10978 14.37 5.09978 14.4 5.07978C14.41 5.06978 14.43 5.06978 14.44 5.05978C14.47 5.03978 14.48 5.00978 14.5 4.98978C14.54 4.94978 14.57 4.91978 14.6 4.86978C14.63 4.82978 14.64 4.77978 14.66 4.72978C14.67 4.69978 14.69 4.66978 14.7 4.63978C14.7 4.61978 14.7 4.60978 14.7 4.58978C14.71 4.53978 14.71 4.48978 14.7 4.43978C14.7 4.38978 14.7 4.34978 14.69 4.29978C14.68 4.25978 14.66 4.21978 14.64 4.16978C14.62 4.11978 14.6 4.06978 14.57 4.02978C14.57 4.01978 14.57 4.00978 14.56 3.99978L12.58 1.52978C12.32 1.20978 11.85 1.14978 11.53 1.40978C11.21 1.66978 11.16 2.13978 11.41 2.45978L12.23 3.47978C12.15 3.47978 12.07 3.46978 11.99 3.46978C6.67998 3.46978 2.34998 7.78978 2.34998 13.1098C2.34998 18.4298 6.66997 22.7498 11.99 22.7498C17.31 22.7498 21.63 18.4298 21.63 13.1098C21.64 11.0398 20.96 9.04978 19.69 7.34978Z" fill="#666666"/>
</svg>
