<svg width="24" height="24" viewBox="0 0 24 24" fill="none" xmlns="http://www.w3.org/2000/svg">
<path d="M22.02 16.8198L18.89 9.49978C18.32 8.15978 17.47 7.39978 16.5 7.34978C15.54 7.29978 14.61 7.96978 13.9 9.24978L12 12.6598C11.6 13.3798 11.03 13.8098 10.41 13.8598C9.78001 13.9198 9.15002 13.5898 8.64002 12.9398L8.42002 12.6598C7.71002 11.7698 6.83002 11.3398 5.93002 11.4298C5.03002 11.5198 4.26002 12.1398 3.75002 13.1498L2.02002 16.5998C1.40002 17.8498 1.46002 19.2998 2.19002 20.4798C2.92002 21.6598 4.19002 22.3698 5.58002 22.3698H18.34C19.68 22.3698 20.93 21.6998 21.67 20.5798C22.43 19.4598 22.55 18.0498 22.02 16.8198Z" fill="#666666"/>
<path d="M6.97003 8.38012C8.83675 8.38012 10.35 6.86684 10.35 5.00012C10.35 3.13339 8.83675 1.62012 6.97003 1.62012C5.1033 1.62012 3.59003 3.13339 3.59003 5.00012C3.59003 6.86684 5.1033 8.38012 6.97003 8.38012Z" fill="#666666"/>
</svg>
