<svg width="24" height="24" viewBox="0 0 24 24" fill="none" xmlns="http://www.w3.org/2000/svg">
<path d="M12 2C12.7956 2 13.5587 2.31607 14.1213 2.87868C14.6839 3.44129 15 4.20435 15 5C15 5.79565 14.6839 6.55871 14.1213 7.12132C13.5587 7.68393 12.7956 8 12 8C11.2043 8 10.4413 7.68393 9.87866 7.12132C9.31605 6.55871 8.99998 5.79565 8.99998 5C8.99998 4.20435 9.31605 3.44129 9.87866 2.87868C10.4413 2.31607 11.2043 2 12 2ZM12 9C13.63 9 15.12 9.35 16.5 10.05C17.84 10.76 18.5 11.61 18.5 12.61V18.38C18.5 19.1655 18.077 19.8624 17.2207 20.4674C16.6344 20.8816 15.89 20.3914 15.89 19.6735V19C15.89 18.05 15.03 17.38 13.31 16.97C12.75 16.84 12.31 16.78 12 16.78C11.13 16.78 10.3 16.95 9.53998 17.3C8.76997 17.64 8.30997 18.08 8.15997 18.61C9.49998 19.14 10.78 19.41 12 19.41C12.5354 19.3565 13 19.7769 13 20.315V20.9382C13 21.5009 12.5617 21.9663 12 22C10.6613 22.0019 9.33668 21.7261 8.10997 21.19C6.35996 20.44 5.49995 19.5 5.49995 18.38V12.61C5.49995 11.61 6.15996 10.76 7.49997 10.05C8.87997 9.35 10.38 9 12 9ZM12 11C11.4696 11 10.9608 11.2107 10.5858 11.5858C10.2107 11.9609 9.99998 12.4696 9.99998 13C9.99998 13.5304 10.2107 14.0391 10.5858 14.4142C10.9608 14.7893 11.4696 15 12 15C12.5304 15 13.0391 14.7893 13.4142 14.4142C13.7893 14.0391 14 13.5304 14 13C14 12.4696 13.7893 11.9609 13.4142 11.5858C13.0391 11.2107 12.5304 11 12 11Z" fill="#666666"/>
</svg>
