<svg width="24" height="24" viewBox="0 0 24 24" fill="none" xmlns="http://www.w3.org/2000/svg">
<path d="M19.79 4.21995C16.83 1.26995 12.03 1.26995 9.09002 4.21995C7.02002 6.26995 6.40002 9.21995 7.20002 11.8199L2.50002 16.5199C2.17002 16.8599 1.94002 17.5299 2.01002 18.0099L2.31002 20.1899C2.42002 20.9099 3.09002 21.5899 3.81002 21.6899L5.99002 21.9899C6.47002 22.0599 7.14002 21.8399 7.48002 21.4899L8.30002 20.6699C8.50002 20.4799 8.50002 20.1599 8.30002 19.9599L6.36002 18.0199C6.07002 17.7299 6.07002 17.2499 6.36002 16.9599C6.65002 16.6699 7.13002 16.6699 7.42002 16.9599L9.37002 18.9099C9.56002 19.0999 9.88002 19.0999 10.07 18.9099L12.19 16.7999C14.78 17.6099 17.73 16.9799 19.79 14.9299C22.74 11.9799 22.74 7.16995 19.79 4.21995ZM14.5 11.9999C13.12 11.9999 12 10.8799 12 9.49995C12 8.11995 13.12 6.99995 14.5 6.99995C15.88 6.99995 17 8.11995 17 9.49995C17 10.8799 15.88 11.9999 14.5 11.9999Z" fill="#666666"/>
</svg>
