<svg xmlns="http://www.w3.org/2000/svg" width="24" height="24" fill="none">
    <path
        d="M10.9 1.343c-1.992.308-3.743 1.311-4.939 2.829l-.3.38-.129-.114c-.153-.134-.326-.174-.654-.15-.277.02-.424.108-.528.317-.064.129-.07.373-.075 3.144l-.005 3.003.089.157c.133.238.284.311.641.311.352 0 .509-.074.631-.296.072-.131.081-.254.104-1.337.026-1.229.054-1.536.191-2.087.117-.473.25-.828.495-1.32.797-1.6 2.322-2.817 4.079-3.254.509-.127.92-.175 1.5-.175 1.043 0 1.867.196 2.82.67 1.791.892 3.075 2.672 3.375 4.679.024.154.044.793.046 1.42.004.957-.006 1.175-.062 1.36-.13.429-.299.679-.824 1.22-.528.545-.635.696-.635.9 0 .36.412.76.783.76.263 0 .373-.08.977-.704.643-.665.904-1.083 1.101-1.762.158-.547.177-1.036.15-3.917-.026-2.909-.018-2.814-.26-2.992-.121-.088-.491-.133-.73-.088a.694.694 0 0 0-.273.141l-.129.114-.3-.38a7.797 7.797 0 0 0-4.305-2.711c-.825-.185-2.063-.237-2.834-.118m.64 3.681a5.197 5.197 0 0 0-1.006.259A4.053 4.053 0 0 0 8.13 7.989c-.094.347-.105.462-.104 1.031.001.524.016.696.085.947a4.081 4.081 0 0 0 1.007 1.806c1.135 1.194 2.9 1.555 4.452.908a4.057 4.057 0 0 0 1.621-1.276 3.996 3.996 0 0 0-.362-5.22 4.178 4.178 0 0 0-1.871-1.065c-.328-.08-1.149-.136-1.418-.096m-8.937.324a.755.755 0 0 0-.22.185c-.081.11-.083.164-.094 1.92-.009 1.661-.004 1.818.06 1.944.127.246.25.303.651.303s.525-.057.65-.303c.063-.124.07-.3.07-1.897 0-1.939.001-1.931-.253-2.117-.159-.117-.669-.138-.864-.035m18 0a.755.755 0 0 0-.22.185c-.081.11-.083.164-.094 1.92-.009 1.661-.004 1.818.06 1.944.127.246.25.303.651.303s.525-.057.65-.303c.063-.124.07-.3.07-1.897 0-1.939.001-1.931-.253-2.117-.159-.117-.669-.138-.864-.035M11.16 15.04c-1.488.098-2.961.449-4.031.96-1.519.725-2.291 1.784-2.072 2.841.09.434.272.761.639 1.149.916.968 2.647 1.657 4.804 1.913a13.4 13.4 0 0 0 1.5.067 13.4 13.4 0 0 0 1.5-.067c2.133-.253 3.878-.943 4.784-1.891.492-.515.69-.958.688-1.536-.008-1.862-2.867-3.345-6.652-3.451-.363-.01-.885-.004-1.16.015"
        fill="#666" fill-rule="evenodd" />
</svg>