<svg width="24" height="24" viewBox="0 0 24 24" fill="none" xmlns="http://www.w3.org/2000/svg">
<path d="M17.62 5.72L7.01 16.33C6.28 15.34 5.88 14.13 5.88 12.82V8.11C5.88 6.27 6.7 4.62 8 3.5V7.64C8 8.03 8.32 8.35 8.7 8.35C9.09 8.35 9.41 8.03 9.41 7.64V2.57C9.87 2.34 10.36 2.18 10.87 2.09V5.75C10.87 6.15 11.19 6.46 11.58 6.46C11.97 6.46 12.29 6.15 12.29 5.75V2C14.68 2.11 16.74 3.61 17.62 5.72Z" fill="#666666"/>
<path d="M18.12 8.87988V12.8199C18.12 16.1899 15.37 18.9399 12 18.9399C11.82 18.9399 11.64 18.9299 11.46 18.9099C11.38 18.9099 11.3 18.8999 11.23 18.8899C11.1 18.8699 10.97 18.8499 10.85 18.8299C10.8 18.8299 10.76 18.8099 10.7 18.7999C10.56 18.7699 10.42 18.7299 10.29 18.6899C10.07 18.6299 9.85997 18.5499 9.65997 18.4699C9.52997 18.4199 9.40997 18.3699 9.28997 18.2999C9.25997 18.2899 9.23997 18.2699 9.20997 18.2599C9.10997 18.2099 9.00997 18.1599 8.90997 18.0899L18.12 8.87988Z" fill="#666666"/>
<path d="M21.75 11V13C21.75 18.38 17.38 22.75 12 22.75C9.87999 22.75 7.84999 22.07 6.17999 20.82L7.25999 19.74C8.63999 20.72 10.28 21.25 12 21.25C16.55 21.25 20.25 17.55 20.25 13V11C20.25 10.59 20.59 10.25 21 10.25C21.41 10.25 21.75 10.59 21.75 11Z" fill="#666666"/>
<path d="M21.77 2.22988C21.47 1.92988 20.98 1.92988 20.68 2.22988L2.23 20.6899C1.93 20.9899 1.93 21.4799 2.23 21.7799C2.38 21.9199 2.57 21.9999 2.77 21.9999C2.97 21.9999 3.16 21.9199 3.31 21.7699L21.77 3.30988C22.08 3.00988 22.08 2.52988 21.77 2.22988Z" fill="#666666"/>
</svg>
