<svg width="24" height="24" viewBox="0 0 24 24" fill="none" xmlns="http://www.w3.org/2000/svg">
<path d="M12 21.9302C6.95998 21.9302 2.84998 17.8302 2.84998 12.7802V10.9002C2.84998 10.5102 3.16998 10.2002 3.54998 10.2002C3.92998 10.2002 4.24998 10.5202 4.24998 10.9002V12.7802C4.24998 17.0502 7.71997 20.5202 11.99 20.5202C16.26 20.5202 19.73 17.0502 19.73 12.7802V10.9002C19.73 10.5102 20.05 10.2002 20.43 10.2002C20.81 10.2002 21.13 10.5202 21.13 10.9002V12.7802C21.15 17.8302 17.04 21.9302 12 21.9302Z" fill="#666666"/>
<path d="M12 2C8.64002 2 5.90002 4.74 5.90002 8.1V12.79C5.90002 16.15 8.64002 18.89 12 18.89C15.36 18.89 18.1 16.15 18.1 12.79V8.1C18.1 4.74 15.36 2 12 2ZM14.18 10.59C14.11 10.86 13.86 11.04 13.59 11.04C13.54 11.04 13.48 11.03 13.43 11.02C12.41 10.74 11.33 10.74 10.31 11.02C9.98002 11.11 9.65002 10.92 9.56002 10.59C9.47002 10.27 9.66002 9.93 9.99002 9.84C11.22 9.5 12.52 9.5 13.75 9.84C14.08 9.93 14.27 10.26 14.18 10.59ZM15.03 7.82C14.94 8.07 14.71 8.22 14.46 8.22C14.39 8.22 14.32 8.21 14.25 8.18C12.72 7.62 11.04 7.62 9.51002 8.18C9.19002 8.3 8.84002 8.14 8.72002 7.82C8.61002 7.51 8.77002 7.16 9.09002 7.04C10.89 6.39 12.87 6.39 14.66 7.04C14.98 7.16 15.14 7.51 15.03 7.82Z" fill="#666666"/>
</svg>
