<svg xmlns="http://www.w3.org/2000/svg" width="24" height="24" fill="none">
    <path
        d="M17.329 3.604a.267.267 0 0 0-.13.14c-.035.091.015.244.354 1.095l.394.99-.203-.156c-.846-.65-2.214-.842-3.344-.471-1.109.364-2.044 1.072-3.18 2.407l-.16.188-.6-.154a17.022 17.022 0 0 0-2.32-.423c-.649-.069-1.986-.078-2.586-.019-1.233.122-2.576.46-3.634.913-.609.261-.885.632-.896 1.204-.005.277.036.428.129.478.04.021.701.165 1.47.319a60.44 60.44 0 0 1 2.046.444c1.183.298 2.408.768 2.356.904a6.848 6.848 0 0 1-.271.443c-.206.319-.26.377-.33.36-.046-.012-.21-.058-.364-.104-.685-.202-1.531-.179-2.288.062-1.254.399-2.198 1.377-2.601 2.691-.097.316-.106.405-.108 1.065-.003.638.008.756.089 1.038.266.918.758 1.636 1.501 2.188 1.05.782 2.508.986 3.747.525a4.019 4.019 0 0 0 2.181-1.991 3.984 3.984 0 0 0-.64-4.431 1.38 1.38 0 0 1-.181-.216c0-.024.467-.769.509-.813.033-.034.407.405.634.745.572.855.921 2.018 1.057 3.515.022.242.04.562.04.711 0 .308.061.484.218.629l.108.1h3.75l.138-.134a.608.608 0 0 0 .159-.24c.012-.058-.006-.349-.041-.646-.078-.686-.05-1.728.063-2.28.203-.999.592-1.742 1.241-2.374.173-.168.33-.306.349-.306.019.001.14.2.269.443l.233.441-.314.328a3.971 3.971 0 0 0-1.021 1.77c-.08.277-.091.407-.091 1.018s.011.741.091 1.018c.264.913.761 1.638 1.501 2.188 1.05.782 2.508.986 3.747.525a4.019 4.019 0 0 0 2.181-1.991 3.985 3.985 0 0 0 .038-3.41 4.024 4.024 0 0 0-2.629-2.192c-.559-.146-1.465-.144-1.968.004-.109.032-.211.045-.226.028-.046-.048-.481-.858-.468-.871.007-.006.129-.047.273-.091.778-.239 2.02-.341 3.071-.254l.333.028.218-.217c.743-.737.896-1.811.431-3.025-.561-1.465-2.128-3.175-3.574-3.901-.384-.193-.644-.274-.751-.235M5.36 14.04c0 .022-.228.395-.506.83-.561.875-.614.979-.614 1.199 0 .444.678.839 1.081.63.147-.075.312-.3.862-1.168.241-.38.448-.69.461-.69.043-.002.227.375.292.596.091.311.084.851-.016 1.175a2.04 2.04 0 0 1-1.377 1.329c-.338.098-.959.067-1.263-.062C3.49 17.543 3 16.823 3 16c0-.852.545-1.619 1.356-1.905.202-.072.35-.094.634-.094.22-.001.37.015.37.039m14.369.076c.495.192.962.659 1.155 1.155.134.344.153.954.041 1.322a2.034 2.034 0 0 1-1.382 1.348c-.338.098-.959.067-1.263-.062-1.174-.499-1.634-1.854-.991-2.916.072-.119.146-.218.165-.22.018-.002.234.368.48.821.534.985.555 1.018.718 1.118.261.159.719.039.978-.257.11-.125.13-.179.13-.352 0-.224-.036-.303-.655-1.448l-.343-.634.369.018c.248.013.444.048.598.107"
        fill="#666" fill-rule="evenodd" />
</svg>