<svg width="24" height="24" viewBox="0 0 24 24" fill="none" xmlns="http://www.w3.org/2000/svg">
<path fill-rule="evenodd" clip-rule="evenodd" d="M9.3194 20.8615C11.1133 21.0865 12.928 21.0861 14.7218 20.8601C14.2352 21.8637 13.205 22.56 12.02 22.56C11.2 22.56 10.44 22.22 9.90002 21.68C9.6646 21.4446 9.46719 21.1673 9.3194 20.8615Z" fill="#666666"/>
<path d="M13.87 3.19994C13.56 3.10994 13.24 3.03994 12.91 2.99994C11.95 2.87994 11.03 2.94994 10.17 3.19994C10.46 2.45994 11.18 1.93994 12.02 1.93994C12.86 1.93994 13.58 2.45994 13.87 3.19994Z" stroke="#666666" stroke-width="1.5" stroke-miterlimit="10" stroke-linecap="round" stroke-linejoin="round"/>
<path d="M7.06379 19.5314C11.1355 20.3169 15.3546 20.0465 19.3247 18.7201L19.3274 18.7192C20.2283 18.4213 20.631 17.3498 20.1345 16.5214L18.7462 14.2155C18.5157 13.8159 18.3226 13.3029 18.1869 12.8082C18.0515 12.3144 17.9539 11.7678 17.9539 11.2937V8.6413L7.06379 19.5314Z" fill="#666666"/>
<path fill-rule="evenodd" clip-rule="evenodd" d="M1.46967 21.2687C1.17678 21.5616 1.17678 22.0364 1.46967 22.3293C1.76256 22.6222 2.23744 22.6222 2.53033 22.3293L22.3293 2.53033C22.6222 2.23744 22.6222 1.76256 22.3293 1.46967C22.0364 1.17678 21.5616 1.17678 21.2687 1.46967L17.6066 5.13171C16.3899 3.34128 14.3369 2.15994 12.02 2.15994C8.29577 2.15994 5.26999 5.18573 5.26999 8.90994V11.7999C5.26999 12.0146 5.22141 12.3286 5.12856 12.6631C5.03599 12.9966 4.91604 13.2905 4.80654 13.4746L4.80578 13.4759L3.65746 15.3831C3.19642 16.1493 3.10011 17.0091 3.38291 17.7729C3.51731 18.1358 3.73078 18.4596 4.0084 18.7299L1.46967 21.2687ZM5.06928 17.6691L16.521 6.2173C15.6002 4.6887 13.9236 3.65994 12.02 3.65994C9.1242 3.65994 6.76999 6.01416 6.76999 8.90994V11.7999C6.76999 12.1953 6.68856 12.6513 6.57391 13.0643C6.45919 13.4776 6.29449 13.908 6.0942 14.244L6.09252 14.2468L4.94263 16.1566C4.69377 16.5703 4.67988 16.9558 4.78957 17.252C4.84386 17.3986 4.93545 17.5424 5.06928 17.6691Z" fill="#666666"/>
<path d="M5.06928 17.6691L16.521 6.2173C15.6002 4.6887 13.9236 3.65994 12.02 3.65994C9.1242 3.65994 6.76999 6.01416 6.76999 8.90994V11.7999C6.76999 12.1953 6.68856 12.6513 6.57391 13.0643C6.45919 13.4776 6.29449 13.908 6.0942 14.244L6.09252 14.2468L4.94263 16.1566C4.69377 16.5703 4.67988 16.9558 4.78957 17.252C4.84386 17.3986 4.93545 17.5424 5.06928 17.6691Z" fill="#666666"/>
</svg>
