<svg width="24" height="24" viewBox="0 0 24 24" fill="none" xmlns="http://www.w3.org/2000/svg">
<path d="M19.83 8.70005L15.3 4.17005C14.35 3.22005 13.04 2.71005 11.7 2.78005L6.70001 3.02005C4.70001 3.11005 3.11001 4.70005 3.01001 6.69005L2.77001 11.69C2.71001 13.03 3.21001 14.34 4.16001 15.29L8.69001 19.82C10.55 21.68 13.57 21.68 15.44 19.82L19.83 15.43C21.7 13.58 21.7 10.56 19.83 8.70005ZM9.50001 12.38C7.91001 12.38 6.62001 11.09 6.62001 9.50005C6.62001 7.91005 7.91001 6.62005 9.50001 6.62005C11.09 6.62005 12.38 7.91005 12.38 9.50005C12.38 11.09 11.09 12.38 9.50001 12.38Z" fill="#666666"/>
</svg>
