<svg width="24" height="24" viewBox="0 0 24 24" fill="none" xmlns="http://www.w3.org/2000/svg">
<path d="M6.67 14H4C2.9 14 2 14.9 2 16V21C2 21.55 2.45 22 3 22H6.67C7.22 22 7.67 21.55 7.67 21V15C7.67 14.45 7.22 14 6.67 14Z" fill="#666666"/>
<path d="M13.33 10H10.66C9.55997 10 8.65997 10.9 8.65997 12V21C8.65997 21.55 9.10997 22 9.65997 22H14.33C14.88 22 15.33 21.55 15.33 21V12C15.33 10.9 14.44 10 13.33 10Z" fill="#666666"/>
<path d="M20 17H17.33C16.78 17 16.33 17.45 16.33 18V21C16.33 21.55 16.78 22 17.33 22H21C21.55 22 22 21.55 22 21V19C22 17.9 21.1 17 20 17Z" fill="#666666"/>
<path d="M15.01 4.85001C15.32 4.54001 15.44 4.17001 15.34 3.85001C15.24 3.53001 14.93 3.30001 14.49 3.23001L13.53 3.07001C13.49 3.07001 13.4 3.00001 13.38 2.96001L12.85 1.90001C12.45 1.09001 11.54 1.09001 11.14 1.90001L10.61 2.96001C10.6 3.00001 10.51 3.07001 10.47 3.07001L9.51 3.23001C9.07 3.30001 8.77 3.53001 8.66 3.85001C8.56 4.17001 8.68 4.54001 8.99 4.85001L9.73 5.60001C9.77 5.63001 9.8 5.75001 9.79 5.79001L9.58 6.71001C9.42 7.40001 9.68 7.71001 9.85 7.83001C10.02 7.95001 10.39 8.11001 11 7.75001L11.9 7.22001C11.94 7.19001 12.07 7.19001 12.11 7.22001L13 7.75001C13.28 7.92001 13.51 7.97001 13.69 7.97001C13.9 7.97001 14.05 7.89001 14.14 7.83001C14.31 7.71001 14.57 7.40001 14.41 6.71001L14.2 5.79001C14.19 5.74001 14.22 5.63001 14.26 5.60001L15.01 4.85001Z" fill="#666666"/>
</svg>
