<svg width="24" height="24" viewBox="0 0 24 24" fill="none" xmlns="http://www.w3.org/2000/svg">
<g clip-path="url(#clip0_1203_2755)">
<g clip-path="url(#clip1_1203_2755)">
<path d="M20.532 16.745C20.037 15.787 18.992 15.145 17.728 15.304C16.3914 15.4666 15.0657 15.709 13.758 16.03C11.748 16.532 9.98701 17.497 8.68501 18.378L8.245 18.684L7.845 18.979L7.487 19.255L7.17301 19.509L6.906 19.735L6.68601 19.927C5.84301 20.678 6.41601 21.905 7.37101 21.995L7.483 22H16.077C17.759 22 19.157 21.155 20.181 19.874C20.955 18.907 21.021 17.691 20.531 16.745H20.532ZM5 2C4.107 2 3.722 2.84 3.533 3.61L3.473 3.878L3.449 4.006C3.305 4.803 3.228 5.848 3.197 6.922C3.137 9.047 3.259 11.524 3.524 12.717C3.986 14.799 4.66401 16.246 5.476 17.118C6.302 18.008 7.418 18.409 8.447 17.894C9.236 17.5 9.707 16.563 9.965 15.764C10.3416 14.5994 10.3356 13.3449 9.948 12.184C9.738 11.552 9.36001 11.042 8.94401 10.557L8.58101 10.146C8.139 9.651 7.696 9.156 7.394 8.553C6.954 7.673 6.83401 6.71 6.79701 5.743L6.78301 5.163L6.774 4.603L6.768 4.465L6.748 4.185C6.653 3.107 6.28401 2 5 2Z" fill="#666666"/>
</g>
</g>
<defs>
<clipPath id="clip0_1203_2755">
<rect width="20" height="20" fill="white" transform="translate(2 2)"/>
</clipPath>
<clipPath id="clip1_1203_2755">
<rect width="24" height="24" fill="white" transform="matrix(-1 0 0 1 24 0)"/>
</clipPath>
</defs>
</svg>
