<svg width="24" height="24" viewBox="0 0 24 24" fill="none" xmlns="http://www.w3.org/2000/svg">
<path d="M17.5 2.5C17.0407 2.49982 16.5876 2.60508 16.1754 2.80768C15.7633 3.01028 15.4031 3.3048 15.1227 3.66855C14.8424 4.0323 14.6493 4.45556 14.5583 4.90572C14.4673 5.35588 14.4809 5.82092 14.598 6.265C14.5256 6.28031 14.4558 6.30626 14.391 6.342L11.634 7.845L8.12801 9.85C8.09291 9.86996 8.05947 9.8927 8.02801 9.918C7.54026 9.62955 6.98078 9.48514 6.41436 9.50149C5.84793 9.51784 5.29772 9.69428 4.82741 10.0104C4.35711 10.3265 3.98595 10.7693 3.75691 11.2876C3.52786 11.806 3.4503 12.3785 3.53319 12.9391C3.61608 13.4997 3.85605 14.0253 4.2253 14.4551C4.59455 14.885 5.07799 15.2014 5.61965 15.3679C6.16132 15.5343 6.73905 15.544 7.28596 15.3957C7.83288 15.2474 8.32662 14.9473 8.71001 14.53L11.636 16.157L14.59 17.768C14.4112 18.476 14.4967 19.2248 14.8305 19.8743C15.1644 20.5237 15.7236 21.0291 16.4034 21.2956C17.0832 21.5622 17.8368 21.5717 18.5231 21.3224C19.2094 21.073 19.7812 20.5819 20.1313 19.9411C20.4814 19.3003 20.5858 18.5538 20.4249 17.8416C20.264 17.1293 19.8488 16.5002 19.2572 16.0722C18.6656 15.6442 17.9382 15.4466 17.2114 15.5165C16.4845 15.5864 15.8082 15.919 15.309 16.452L12.362 14.844L9.41601 13.208C9.59526 12.4654 9.48514 11.6824 9.10801 11.018L12.366 9.156L15.109 7.659C15.1743 7.62367 15.2339 7.57885 15.286 7.526C15.6229 7.89393 16.0463 8.17203 16.5177 8.33513C16.9892 8.49823 17.4939 8.54119 17.9861 8.46012C18.4783 8.37904 18.9426 8.17649 19.3368 7.8708C19.7311 7.56511 20.0429 7.16593 20.244 6.70939C20.4451 6.25285 20.5292 5.75336 20.4886 5.25614C20.4481 4.75892 20.2842 4.27966 20.0117 3.86174C19.7393 3.44382 19.367 3.10043 18.9284 2.86266C18.4898 2.62489 17.9989 2.50024 17.5 2.5Z" fill="#666666"/>
</svg>
