<svg width="24" height="24" viewBox="0 0 24 24" fill="none" xmlns="http://www.w3.org/2000/svg">
<path d="M19.85 12.9401C19.85 13.7401 20.5 14.4001 21.3 14.4001C21.68 14.4001 22 14.7101 22 15.0901C22 18.9301 20.84 20.0901 17 20.0901H11.75V18.5001C11.75 18.1101 11.45 17.7901 11.07 17.7601C11.05 17.7501 11.02 17.7501 11 17.7501C10.59 17.7501 10.25 18.0901 10.25 18.5001V20.0901H8.49C6.61 20.0901 5.64 18.6801 4.76 16.5501L4.59 16.1301C4.45 15.7701 4.62 15.3601 4.98 15.2201C5.35 15.0801 5.64 14.7901 5.79 14.4101C5.95 14.0401 5.95 13.6301 5.8 13.2601C5.48 12.4901 4.6 12.1201 3.82 12.4301C3.65 12.5101 3.45 12.5101 3.28 12.4301C3.11 12.3601 2.98 12.2201 2.9 12.0401L2.75 11.6401C1.26 8.02006 1.91 6.47006 5.53 4.97006L7.98 3.96006C8.34 3.81006 8.75 3.98006 8.89 4.34006L11.07 9.09006C10.66 9.09006 10.25 9.42006 10.25 9.83006V14.1701C10.25 14.5801 10.59 14.9201 11 14.9201C11.02 14.9201 11.05 14.9201 11.07 14.9101C11.45 14.8801 11.75 14.5601 11.75 14.1701V9.83006C11.75 9.44006 11.45 9.12006 11.07 9.09006V4.93006H17C20.84 4.93006 22 6.09006 22 9.93006V10.7801C22 11.1701 21.68 11.4801 21.3 11.4801C20.5 11.4801 19.85 12.1301 19.85 12.9401Z" fill="#666666"/>
</svg>
