<svg width="24" height="24" viewBox="0 0 24 24" fill="none" xmlns="http://www.w3.org/2000/svg">
<path d="M20.9882 12.4611C20.5565 11.4298 19.8954 10.4948 18.9547 9.72476C17.2222 8.30659 15.0401 6.78075 13.0632 5.50601C12.1983 4.9483 11.2786 4.49125 10.3204 4.12744L12.0215 7.91517C12.9663 10.0188 14.9743 11.5374 17.3673 11.9581L20.9882 12.4611Z" fill="#666666"/>
<path fill-rule="evenodd" clip-rule="evenodd" d="M8.42872 3.53966C6.9372 3.17169 5.38295 3 3.81918 3C2.81448 3 2 3.76357 2 4.70549V18H20.622C21.126 18 21.5467 17.6394 21.5916 17.1688C21.6961 16.0754 21.661 14.982 21.4447 13.9454L17.0908 13.3404C14.2028 12.8328 11.7793 11 10.6391 8.4611L8.42872 3.53966ZM4 6C4.41421 6 4.75 6.33579 4.75 6.75V10.5C4.75 10.9142 4.41421 11.25 4 11.25C3.58579 11.25 3.25 10.9142 3.25 10.5V6.75C3.25 6.33579 3.58579 6 4 6ZM7.75 6.75C7.75 6.33579 7.41421 6 7 6C6.58579 6 6.25 6.33579 6.25 6.75V10.5C6.25 10.9142 6.58579 11.25 7 11.25C7.41421 11.25 7.75 10.9142 7.75 10.5V6.75Z" fill="#666666"/>
<path fill-rule="evenodd" clip-rule="evenodd" d="M2 20C2 19.4477 2.3161 19 2.70602 19H21.294C21.6839 19 22 19.4477 22 20C22 20.5523 21.6839 21 21.294 21H2.70602C2.3161 21 2 20.5523 2 20Z" fill="#666666"/>
</svg>
