<svg xmlns="http://www.w3.org/2000/svg" width="24" height="24" fill="none"><path d="M10.363 3.43a.603.603 0 0 0-.326.456c-.018.096-.034 1.663-.035 3.484-.002 2.668-.012 3.31-.053 3.31-.05 0-2.709-.477-3.133-.562-.197-.04-.215-.055-.557-.486-.427-.538-1.301-1.446-1.636-1.699a3.153 3.153 0 0 0-.501-.303c-.223-.102-.295-.116-.529-.103-.304.017-.441.093-.573.317-.077.131-.08.219-.092 2.386-.007 1.472.003 2.303.031 2.405a.608.608 0 0 0 .33.417c.283.133 5.889 1.829 8.891 2.688 4.197 1.202 5.969 1.615 6.72 1.566 1.345-.089 2.141-.816 2.15-1.966.007-.894-.461-1.618-1.33-2.057-.45-.228-.669-.288-2.558-.703-.955-.21-1.74-.386-1.742-.391-.003-.005-.524-1.701-1.158-3.769-.633-2.068-1.177-3.809-1.207-3.868-.087-.171-.256-.275-1.208-.748-.821-.408-.911-.444-1.12-.444a.893.893 0 0 0-.364.07m2.559 5.639c.609 1.985 1.148 3.736 1.198 3.891.099.307.248.478.487.555.073.023.961.224 1.973.445 1.852.406 2.23.502 2.503.641.328.168.54.492.503.773-.057.444-.636.571-1.661.364-1.196-.242-3.701-.923-7.305-1.985-2.462-.725-6.173-1.853-6.206-1.885a19.307 19.307 0 0 1-.005-1.072L4.42 9.74l.36.42c.199.231.474.577.612.768.288.4.39.483.668.546.542.123 4.639.846 4.792.846a.614.614 0 0 0 .526-.32c.081-.138.082-.193.093-3.432l.011-3.293.166.093.166.092 1.108 3.609M3.683 19.27c-.244.125-.303.249-.303.643 0 .295.013.366.089.472.197.276-.516.255 8.531.255s8.334.021 8.531-.255c.076-.106.089-.177.089-.472 0-.394-.059-.518-.303-.643-.129-.066-.608-.07-8.317-.07-7.709 0-8.188.004-8.317.07" fill-rule="evenodd" fill="#666"/></svg>