<svg width="24" height="24" viewBox="0 0 24 24" fill="none" xmlns="http://www.w3.org/2000/svg">
<path d="M6.75992 22H17.2399C19.9999 22 21.0999 20.31 21.2299 18.25L21.7499 9.99C21.8899 7.83 20.1699 6 17.9999 6C17.3899 6 16.8299 5.65 16.5499 5.11L15.8299 3.66C15.3699 2.75 14.1699 2 13.1499 2H10.8599C9.82992 2 8.62992 2.75 8.16992 3.66L7.44992 5.11C7.16992 5.65 6.60992 6 5.99992 6C3.82992 6 2.10992 7.83 2.24992 9.99L2.76992 18.25C2.88992 20.31 3.99992 22 6.75992 22Z" stroke="#666666" stroke-width="1.5" stroke-linecap="round" stroke-linejoin="round"/>
<path d="M16.1912 13.5956C16.1912 16.1324 14.1324 18.1912 11.5956 18.1912C9.05882 18.1912 7.51011 15.636 7.51011 15.636M7.51011 15.636H9.58732M7.51011 15.636V17.9338M7 13.5956C7 11.0588 9.04044 9 11.5956 9C14.6608 9 16.1912 11.5551 16.1912 11.5551M16.1912 11.5551V9.25735M16.1912 11.5551H14.1507" stroke="#666666" stroke-width="1.5" stroke-linecap="round" stroke-linejoin="round"/>
</svg>
