<svg width="24" height="24" viewBox="0 0 24 24" fill="none" xmlns="http://www.w3.org/2000/svg">
<path fill-rule="evenodd" clip-rule="evenodd" d="M5.80847 8.24635C6.46488 8.24635 7.0944 7.9856 7.55854 7.52145C8.02269 7.0573 8.28345 6.42778 8.28345 5.77137C8.28345 5.11496 8.02269 4.48544 7.55854 4.02129C7.0944 3.55714 6.46488 3.29639 5.80847 3.29639C5.15207 3.29639 4.52255 3.55714 4.0584 4.02129C3.59425 4.48544 3.3335 5.11496 3.3335 5.77137C3.3335 6.42778 3.59425 7.0573 4.0584 7.52145C4.52255 7.9856 5.15207 8.24635 5.80847 8.24635ZM5.80847 7.00886C6.13667 7.00886 6.45143 6.87848 6.68351 6.64641C6.91558 6.41433 7.04596 6.09957 7.04596 5.77137C7.04596 5.44317 6.91558 5.12841 6.68351 4.89633C6.45143 4.66426 6.13667 4.53388 5.80847 4.53388C5.48027 4.53388 5.16551 4.66426 4.93344 4.89633C4.70136 5.12841 4.57098 5.44317 4.57098 5.77137C4.57098 6.09957 4.70136 6.41433 4.93344 6.64641C5.16551 6.87848 5.48027 7.00886 5.80847 7.00886Z" fill="#666666"/>
<path d="M7.83052 11.5888L4.30368 10.1025L7.83052 11.59V11.5888ZM7.83052 11.5888L7.93695 11.6339L7.83052 11.4731V11.5888Z" fill="#666666"/>
<path fill-rule="evenodd" clip-rule="evenodd" d="M2.60338 9.47766C2.95173 9.21345 3.53892 8.8651 4.3043 8.8651H7.39555C8.2389 8.8651 8.86816 9.30936 9.17444 9.55686C9.53331 9.84705 9.84392 10.196 10.084 10.4943C10.467 10.9682 10.8203 11.5059 11.022 11.8109L11.0263 11.8171C11.0752 11.8914 11.1123 11.9483 11.1402 11.9891C11.2683 12.1779 11.3567 12.3827 11.4081 12.5918C11.4533 12.3517 11.5479 12.1172 11.6958 11.9025C11.7571 11.814 11.8307 11.7033 11.9167 11.5746L11.9235 11.5634C12.1586 11.2095 12.4761 10.7325 12.7898 10.342C13.0125 10.0642 13.3046 9.73753 13.6579 9.46714C13.9938 9.20974 14.5662 8.8651 15.3149 8.8651H18.3028C19.1276 8.8651 19.7407 9.30441 20.0352 9.5451C20.383 9.82911 20.6825 10.17 20.9145 10.4608C21.2839 10.9237 21.626 11.449 21.8197 11.7466L21.8222 11.7509L21.824 11.7534L21.8278 11.759C21.8735 11.8289 21.9082 11.8827 21.9342 11.9211C22.1204 12.1988 22.2258 12.5228 22.2385 12.857C22.2512 13.1911 22.1708 13.5222 22.0062 13.8133C21.8417 14.1044 21.5994 14.344 21.3065 14.5054C21.0137 14.6667 20.6817 14.7435 20.3477 14.7271C20.5259 15.3724 20.6973 15.959 20.8211 16.3723C21.0153 17.0239 20.6249 17.728 19.935 17.8722C17.7013 18.3393 16.1211 18.3245 13.7203 17.866C13.5563 17.8342 13.4008 17.7681 13.2641 17.6721C13.1273 17.576 13.0124 17.4522 12.9268 17.3087C12.8412 17.1652 12.7868 17.0053 12.7672 16.8394C12.7477 16.6734 12.7634 16.5052 12.8133 16.3457C12.9407 15.9355 13.1152 15.3607 13.2934 14.7259C12.8901 14.7517 12.4899 14.6407 12.1574 14.4109C11.795 14.1618 11.5365 13.7885 11.431 13.3615C11.3873 13.6047 11.2954 13.8367 11.1606 14.0438C11.0259 14.2509 10.8511 14.429 10.6464 14.5675C10.4217 14.7203 10.166 14.8218 9.89761 14.8648C9.62921 14.9078 9.35464 14.8912 9.09338 14.8162L9.09709 14.8471L9.5098 18.5596C9.564 19.0406 9.42819 19.5237 9.13131 19.906C8.83443 20.2883 8.39998 20.5395 7.92056 20.6061C7.44113 20.6726 6.95467 20.5493 6.56486 20.2624C6.17506 19.9755 5.91274 19.5476 5.83384 19.0701L5.80847 18.9185L5.78372 19.0701C5.70803 19.5506 5.44676 19.9822 5.0561 20.272C4.66545 20.5618 4.17663 20.6868 3.69482 20.6199C3.21301 20.553 2.77671 20.2996 2.47979 19.9143C2.18287 19.529 2.04906 19.0426 2.10714 18.5596L2.42765 15.6793L2.45797 14.8521C2.09485 14.9243 1.71843 14.8862 1.3771 14.7428C1.03577 14.5994 0.745114 14.3572 0.542488 14.0474C0.339863 13.7375 0.234525 13.3742 0.240011 13.004C0.245497 12.6338 0.361558 12.2737 0.573277 11.97C0.633914 11.8821 0.706926 11.7744 0.791694 11.6482L0.809018 11.6228C1.05157 11.2609 1.38012 10.7721 1.70496 10.373C1.93637 10.0884 2.23894 9.75362 2.60338 9.47766ZM4.30492 10.1026C3.92254 10.1026 3.59708 10.2777 3.35082 10.4639C3.09961 10.6545 2.86944 10.9032 2.66587 11.1532C2.38248 11.5022 2.08487 11.9434 1.83551 12.3146L1.82685 12.327C1.74085 12.4551 1.65917 12.577 1.58925 12.6778C1.53974 12.7443 1.5041 12.82 1.48443 12.9006C1.46476 12.9811 1.46148 13.0647 1.47476 13.1466C1.48805 13.2284 1.51765 13.3067 1.56179 13.3769C1.60593 13.447 1.66371 13.5076 1.73172 13.555C1.79972 13.6024 1.87656 13.6356 1.95766 13.6528C2.03876 13.6699 2.12248 13.6706 2.20384 13.6547C2.2852 13.6388 2.36255 13.6068 2.43129 13.5605C2.50003 13.5142 2.55876 13.4545 2.60399 13.385L3.81426 11.6464L3.66328 15.7703L3.33782 18.697C3.32118 18.8566 3.36722 19.0165 3.46622 19.1428C3.56522 19.2691 3.70943 19.352 3.86842 19.374C4.0274 19.396 4.18871 19.3554 4.3183 19.2607C4.44788 19.166 4.5356 19.0247 4.56294 18.8665L5.17797 15.1775L5.8128 15.0365L6.44145 15.1837L7.05524 18.8665C7.08236 19.0249 7.17005 19.1666 7.29977 19.2615C7.42948 19.3564 7.59104 19.3971 7.75023 19.375C7.90943 19.3529 8.05377 19.2697 8.15271 19.143C8.25166 19.0164 8.29743 18.8562 8.28035 18.6964L7.86765 14.9839C7.86423 14.9538 7.85865 14.924 7.85094 14.8948L7.83114 14.8174V11.5901L7.93819 11.6352L8.9653 13.1883L9.09276 13.3788C9.18491 13.5146 9.32722 13.6083 9.48839 13.6391C9.64957 13.67 9.8164 13.6356 9.9522 13.5434C10.088 13.4513 10.1816 13.309 10.2125 13.1478C10.2434 12.9866 10.2089 12.8198 10.1168 12.684L9.99675 12.5033L7.93819 11.6352L7.93757 11.634L9.99551 12.5015L9.99304 12.4984C9.78947 12.189 9.46401 11.6952 9.12184 11.2708C8.9059 11.0035 8.65902 10.7306 8.39791 10.5196C8.15413 10.3229 7.80516 10.1026 7.39617 10.1026H4.30492ZM14.3805 10.4101C14.6194 10.2276 14.9387 10.0531 15.3155 10.0531H18.3034C18.7068 10.0531 19.049 10.2727 19.2847 10.4652C19.5384 10.6725 19.7779 10.9398 19.9864 11.2015C20.318 11.6167 20.633 12.0999 20.8297 12.4018L20.8316 12.4049C20.8761 12.473 20.917 12.5355 20.9491 12.5831C21.0405 12.7185 21.0743 12.8846 21.0431 13.0449C21.0119 13.2053 20.9184 13.3466 20.783 13.4379C20.6476 13.5293 20.4815 13.5631 20.3212 13.5319C20.1609 13.5008 20.0195 13.4072 19.9282 13.2718C19.8497 13.1565 19.7332 13.0725 19.599 13.0344C19.4648 12.9964 19.3215 13.0069 19.1942 13.0639C19.0669 13.1209 18.9638 13.221 18.9028 13.3464C18.8419 13.4719 18.827 13.6148 18.8609 13.7501C19.1436 14.8737 19.4796 16.0302 19.6832 16.7114C17.6259 17.1408 16.2077 17.1309 13.9474 16.7003L13.948 16.6984C14.2592 15.703 14.5431 14.6992 14.7994 13.6882C14.8329 13.5531 14.8178 13.4105 14.7568 13.2854C14.6959 13.1602 14.5929 13.0605 14.4659 13.0035C14.3388 12.9466 14.1959 12.936 14.0619 12.9737C13.9279 13.0115 13.8114 13.0951 13.7327 13.2099L13.6882 13.2755C13.595 13.4088 13.4529 13.4998 13.2928 13.5286C13.1328 13.5575 12.9679 13.5218 12.834 13.4295C12.7002 13.3372 12.6083 13.1956 12.5784 13.0358C12.5486 12.8759 12.5832 12.7108 12.6747 12.5763C12.7421 12.4786 12.8213 12.3598 12.9042 12.2348L12.9073 12.2305C13.1492 11.866 13.4394 11.4304 13.716 11.0864C13.9128 10.8414 14.1361 10.5976 14.3805 10.4101ZM16.9459 8.24635C17.6023 8.24635 18.2318 7.9856 18.6959 7.52145C19.1601 7.0573 19.4208 6.42778 19.4208 5.77137C19.4208 5.11496 19.1601 4.48544 18.6959 4.02129C18.2318 3.55714 17.6023 3.29639 16.9459 3.29639C16.2895 3.29639 15.6599 3.55714 15.1958 4.02129C14.7316 4.48544 14.4709 5.11496 14.4709 5.77137C14.4709 6.42778 14.7316 7.0573 15.1958 7.52145C15.6599 7.9856 16.2895 8.24635 16.9459 8.24635ZM16.9459 7.00886C17.2741 7.00886 17.5888 6.87848 17.8209 6.64641C18.053 6.41433 18.1833 6.09957 18.1833 5.77137C18.1833 5.44317 18.053 5.12841 17.8209 4.89633C17.5888 4.66426 17.2741 4.53388 16.9459 4.53388C16.6177 4.53388 16.3029 4.66426 16.0708 4.89633C15.8388 5.12841 15.7084 5.44317 15.7084 5.77137C15.7084 6.09957 15.8388 6.41433 16.0708 6.64641C16.3029 6.87848 16.6177 7.00886 16.9459 7.00886Z" fill="#666666"/>
<path d="M14.9659 20.6129C14.7431 20.583 14.5388 20.4732 14.3909 20.304C14.2429 20.1348 14.1614 19.9176 14.1615 19.6929V18.9281C14.8427 19.016 15.5275 19.0725 16.2139 19.0976L15.9849 19.9373C15.9258 20.1541 15.7899 20.3421 15.6026 20.4664C15.4153 20.5907 15.1893 20.6427 14.9665 20.6129H14.9659ZM17.9068 19.9373L17.6766 19.0945C18.3634 19.0664 19.0486 19.008 19.7302 18.9194V19.6929C19.7302 19.9176 19.6486 20.1348 19.5005 20.3039C19.3525 20.4731 19.1482 20.5828 18.9254 20.6126C18.7026 20.6425 18.4765 20.5905 18.2892 20.4663C18.1019 20.3421 17.966 20.1541 17.9068 19.9373Z" fill="#666666"/>
</svg>
