<svg xmlns="http://www.w3.org/2000/svg" width="24" height="24" fill="none"><path d="M5.85 5.813c-1.038.35-1.189.43-1.33.707-.096.188-.101.313-.018.511.042.103.799.887 2.468 2.558 1.323 1.324 2.398 2.415 2.388 2.423-.032.028-2.737 1.893-2.787 1.922-.027.016-.306-.001-.62-.039-.804-.096-2.228-.097-2.607-.003-.743.187-1.129.682-.888 1.138.032.06.793.842 1.691 1.737 1.759 1.753 1.716 1.719 2.072 1.661.17-.028 2.693-1.357 6.261-3.3 4.422-2.407 6.967-3.911 7.636-4.512.411-.37.769-.956.884-1.45a2.137 2.137 0 0 0-.06-.986c-.152-.44-.617-.936-1.08-1.154-.637-.3-1.436-.261-2.236.108-.156.072-.968.569-1.804 1.104-.836.535-1.538.973-1.56.972-.022-.001-1.471-.761-3.22-1.69-4.073-2.163-3.832-2.041-4.045-2.037-.106.002-.555.132-1.145.33m4.604 3.067c1.951 1.034 3.621 1.896 3.711 1.917a.615.615 0 0 0 .329-.014c.092-.028.877-.507 1.746-1.063.869-.557 1.679-1.071 1.801-1.143.276-.163.67-.297.868-.296.327.002.65.258.651.516 0 .142-.14.409-.323.617-.167.19-.786.624-1.557 1.093-1.676 1.018-6.523 3.694-10.24 5.652a98.45 98.45 0 0 0-.984.523l-.203.112-.757-.76-.756-.759.42.026c.231.014.6.052.82.085.688.102.829.108.98.044.228-.096 3.965-2.698 4.15-2.89.207-.214.24-.442.104-.717-.034-.068-1.089-1.153-2.346-2.411-2.149-2.153-2.278-2.29-2.186-2.324.162-.06.218-.082.222-.085.002-.002 1.6.843 3.55 1.877M3.683 19.27c-.244.125-.303.249-.303.643 0 .295.013.366.089.472.197.276-.516.255 8.531.255s8.334.021 8.531-.255c.076-.106.089-.177.089-.472 0-.394-.059-.518-.303-.643-.129-.066-.608-.07-8.317-.07-7.709 0-8.188.004-8.317.07" fill-rule="evenodd" fill="#666"/></svg>