<svg width="24" height="24" viewBox="0 0 24 24" fill="none" xmlns="http://www.w3.org/2000/svg">
<path d="M21.68 16.9601L18.55 9.65013C17.49 7.17013 15.54 7.07013 14.23 9.43013L12.34 12.8401C11.38 14.5701 9.59005 14.7201 8.35005 13.1701L8.13005 12.8901C6.84005 11.2701 5.02005 11.4701 4.09005 13.3201L2.37005 16.7701C1.16005 19.1701 2.91005 22.0001 5.59005 22.0001H18.35C20.95 22.0001 22.7 19.3501 21.68 16.9601Z" stroke="#666666" stroke-width="1.5" stroke-linecap="round" stroke-linejoin="round"/>
<path d="M6.96997 8C8.62682 8 9.96997 6.65685 9.96997 5C9.96997 3.34315 8.62682 2 6.96997 2C5.31312 2 3.96997 3.34315 3.96997 5C3.96997 6.65685 5.31312 8 6.96997 8Z" stroke="#666666" stroke-width="1.5" stroke-linecap="round" stroke-linejoin="round"/>
</svg>
