<svg width="24" height="24" viewBox="0 0 24 24" fill="none" xmlns="http://www.w3.org/2000/svg">
<path d="M11.7533 16.9681C10.6604 16.9681 9.76622 16.0739 9.76622 14.981C9.76622 13.8881 10.6604 12.9939 11.7533 12.9939C12.8462 12.9939 13.7404 13.8881 13.7404 14.981C13.7404 16.0739 12.8462 16.9681 11.7533 16.9681ZM11.7533 10.0133C14.0782 10.0133 18.7082 11.1658 18.7082 13.4907V18.5875C18.7082 18.9647 18.5777 19.3173 18.3504 19.6404C17.9124 20.2631 17.0589 19.7895 17.0589 19.0281V13.3714C17.0589 12.8151 14.3366 11.5433 11.7533 11.5433C9.17009 11.5433 6.44776 12.8151 6.44776 13.3714V18.7068C6.44776 18.9552 7.09357 19.4122 8.05731 19.7997C8.77267 18.9552 10.6902 18.518 11.7533 18.518C13.0748 18.518 15.7275 19.1737 15.7275 20.5051C15.7275 20.9997 15.4179 21.4456 14.9418 21.5796C13.7991 21.9014 12.6159 22.0649 11.7533 22.0649C10.6902 22.0649 9.15022 21.8166 7.77912 21.3297C6.15963 20.7535 4.79846 19.8394 4.79846 18.5875V13.4907C4.79846 11.1658 9.42842 10.0133 11.7533 10.0133ZM11.7533 3.80364C10.7896 3.80364 10.0146 4.5786 10.0146 5.54234C10.0146 6.50607 10.7896 7.28104 11.7533 7.28104C12.7171 7.28104 13.492 6.50607 13.492 5.54234C13.492 4.5786 12.7171 3.80364 11.7533 3.80364ZM11.7533 9.01974C9.83577 9.01974 8.2759 7.45987 8.2759 5.54234C8.2759 3.6248 9.83577 2.06494 11.7533 2.06494C13.6709 2.06494 15.2308 3.6248 15.2308 5.54234C15.2308 7.45987 13.6709 9.01974 11.7533 9.01974Z" fill="#666666"/>
</svg>
