<svg width="44" height="44" viewBox="0 0 44 44" fill="none" xmlns="http://www.w3.org/2000/svg">
<path d="M26.1441 20C26.0541 19.991 25.9459 19.991 25.8468 20C23.7027 19.9278 22 18.1691 22 16.0045C22 13.7948 23.7838 12 26 12C28.2072 12 30 13.7948 30 16.0045C29.991 18.1691 28.2883 19.9278 26.1441 20Z" stroke="#666666" stroke-width="1.5" stroke-linecap="round" stroke-linejoin="round"/>
<path d="M20.8629 23.1142C18.379 24.4294 18.379 26.5726 20.8629 27.8797C23.6855 29.3734 28.3145 29.3734 31.1371 27.8797C33.621 26.5645 33.621 24.4213 31.1371 23.1142C28.3248 21.6286 23.6957 21.6286 20.8629 23.1142Z" stroke="#666666" stroke-width="1.5" stroke-linecap="round" stroke-linejoin="round"/>
<path d="M19 17.5V12" stroke="#666666" stroke-width="1.5" stroke-linecap="round"/>
<path d="M17 16V13M35 16V13" stroke="#666666" stroke-width="1.5" stroke-linecap="round"/>
<path d="M33 17V12" stroke="#666666" stroke-width="1.5" stroke-linecap="round"/>
<path d="M19 16C19 12.134 22.134 9 26 9C29.866 9 33 12.134 33 16V17.2574C33 18.053 32.6839 18.8161 32.1213 19.3787L31.5 20" stroke="#666666" stroke-width="1.5" stroke-linecap="round"/>
</svg>
