<svg width="24" height="24" viewBox="0 0 24 24" fill="none" xmlns="http://www.w3.org/2000/svg">
<circle cx="19.0061" cy="15.9995" r="3.25" stroke="#666666" stroke-width="1.5" stroke-linejoin="round"/>
<circle cx="5.00607" cy="15.9995" r="3.25" stroke="#666666" stroke-width="1.5" stroke-linejoin="round"/>
<path d="M18.006 5.89429C17.006 4.89468 13.5 4 11 7.50001" stroke="#666666" stroke-width="1.5" stroke-linecap="round" stroke-linejoin="round"/>
<path d="M19.0061 15.9995L16.5 11.5" stroke="#666666" stroke-width="1.5" stroke-linecap="round" stroke-linejoin="round"/>
<path d="M5.00606 15.9999L7.5 11.5" stroke="#666666" stroke-width="1.5" stroke-linecap="round" stroke-linejoin="round"/>
<path d="M21.0061 11C23.7894 8.68054 19.6864 4.20904 17.4821 3.57538C17.2587 3.51116 17.1 3.73477 17.1863 3.9506L18.0061 6C17.1454 7.41819 14.2441 9.03576 13.1489 8.48814C8.98157 6.89429 5.47828 6.59423 1.76488 8.15626C1.29524 8.35382 0.996886 8.82421 0.997565 9.33371C0.998501 10.0355 1.10339 10 2.00605 10C6.86884 10 10.3151 11.4222 10.4928 17.4977C10.5009 17.7737 10.7239 17.9996 11 17.9996H13.3063C13.6476 17.9996 13.8882 17.6633 13.8124 17.3305C12.853 13.1146 16.2497 9.57483 21.0061 11Z" stroke="#666666" stroke-width="1.5" stroke-linecap="round" stroke-linejoin="round"/>
</svg>
