<svg width="24" height="24" viewBox="0 0 24 24" fill="none" xmlns="http://www.w3.org/2000/svg">
<path d="M6.28003 21.9998C8.00316 21.9998 9.40003 20.6029 9.40003 18.8798C9.40003 17.1566 8.00316 15.7598 6.28003 15.7598C4.55691 15.7598 3.16003 17.1566 3.16003 18.8798C3.16003 20.6029 4.55691 21.9998 6.28003 21.9998Z" stroke="#666666" stroke-width="1.5" stroke-linecap="round" stroke-linejoin="round"/>
<path d="M20.84 16.7998V4.59985C20.84 1.99985 19.21 1.63985 17.56 2.08985L11.32 3.78985C10.18 4.09985 9.40002 4.99985 9.40002 6.29985V8.46985V9.92985V18.8699" stroke="#666666" stroke-width="1.5" stroke-linecap="round" stroke-linejoin="round"/>
<path d="M17.72 19.9202C19.4431 19.9202 20.84 18.5233 20.84 16.8002C20.84 15.077 19.4431 13.6802 17.72 13.6802C15.9968 13.6802 14.6 15.077 14.6 16.8002C14.6 18.5233 15.9968 19.9202 17.72 19.9202Z" stroke="#666666" stroke-width="1.5" stroke-linecap="round" stroke-linejoin="round"/>
<path d="M9.40002 9.5199L20.84 6.3999" stroke="#666666" stroke-width="1.5" stroke-linecap="round" stroke-linejoin="round"/>
</svg>
