<svg width="24" height="24" viewBox="0 0 24 24" fill="none" xmlns="http://www.w3.org/2000/svg">
<path d="M6.93396 19.9257C10.8766 20.8766 15.0142 20.7053 18.8865 19.4117C20.5548 18.8595 21.2786 16.8934 20.3731 15.3841L19.2265 13.4797C19.1194 13.2924 19.0018 12.9973 18.9108 12.6654C18.8186 12.3293 18.77 12.0149 18.77 11.8V8.91C18.77 8.64777 18.7548 8.38892 18.7254 8.13428L17.27 9.58971V11.8C17.27 12.1951 17.3513 12.6507 17.4642 13.0621C17.5772 13.4744 17.7381 13.9019 17.9302 14.2349L19.0872 16.1564C19.5009 16.8467 19.1653 17.7397 18.4146 17.9879L18.4123 17.9887C15.1039 19.094 11.5879 19.3194 8.1949 18.6648L6.93396 19.9257Z" fill="#666666"/>
<path fill-rule="evenodd" clip-rule="evenodd" d="M1.46967 21.2687C1.17678 21.5616 1.17678 22.0364 1.46967 22.3293C1.76256 22.6222 2.23744 22.6222 2.53033 22.3293L22.3293 2.53033C22.6222 2.23744 22.6222 1.76256 22.3293 1.46967C22.0364 1.17678 21.5616 1.17678 21.2687 1.46967L17.6066 5.13171C16.3899 3.34128 14.3369 2.15994 12.02 2.15994C8.29577 2.15994 5.26999 5.18573 5.26999 8.90994V11.7999C5.26999 12.0146 5.22141 12.3286 5.12856 12.6631C5.03599 12.9966 4.91604 13.2905 4.80654 13.4746L4.80578 13.4759L3.65746 15.3831C3.19642 16.1493 3.10011 17.0091 3.38291 17.7729C3.51731 18.1358 3.73078 18.4596 4.0084 18.7299L1.46967 21.2687ZM5.06928 17.6691L16.521 6.2173C15.6002 4.6887 13.9236 3.65994 12.02 3.65994C9.1242 3.65994 6.76999 6.01416 6.76999 8.90994V11.7999C6.76999 12.1953 6.68856 12.6513 6.57391 13.0643C6.45919 13.4776 6.29449 13.908 6.0942 14.244L6.09252 14.2468L4.94263 16.1566C4.69377 16.5703 4.67988 16.9558 4.78957 17.252C4.84386 17.3986 4.93545 17.5424 5.06928 17.6691Z" fill="#666666"/>
<path d="M13.87 3.19994C13.56 3.10994 13.24 3.03994 12.91 2.99994C11.95 2.87994 11.03 2.94994 10.17 3.19994C10.46 2.45994 11.18 1.93994 12.02 1.93994C12.86 1.93994 13.58 2.45994 13.87 3.19994Z" stroke="#666666" stroke-width="1.5" stroke-miterlimit="10" stroke-linecap="round" stroke-linejoin="round"/>
<path d="M15.02 19.0601C15.02 20.7101 13.67 22.0601 12.02 22.0601C11.2 22.0601 10.44 21.7201 9.90002 21.1801C9.36002 20.6401 9.02002 19.8801 9.02002 19.0601" stroke="#666666" stroke-width="1.5" stroke-miterlimit="10"/>
</svg>
