<svg width="24" height="24" viewBox="0 0 24 24" fill="none" xmlns="http://www.w3.org/2000/svg">
<g clip-path="url(#clip0_1203_2731)">
<g clip-path="url(#clip1_1203_2731)">
<path d="M8.37826 11.0494C8.77427 11.5115 9.07359 11.9309 9.23627 12.4205L9.23661 12.4215C9.57351 13.4306 9.57869 14.521 9.25138 15.5333L9.25129 15.5335C9.00328 16.3016 8.6113 16.9736 8.11193 17.223L8.11133 17.2233C7.48552 17.5365 6.71661 17.3522 6.02573 16.6078L6.02488 16.6069C5.34243 15.874 4.70459 14.5752 4.25619 12.5545L4.25616 12.5544C4.01204 11.4554 3.88711 9.05481 3.94669 6.94364L8.37826 11.0494ZM8.37826 11.0494L8.02157 10.6455C8.0211 10.645 8.02063 10.6445 8.02016 10.644C8.01058 10.6332 8.00096 10.6225 7.9913 10.6116C7.56711 10.1368 7.06926 9.57942 6.72341 8.88886L6.72318 8.88841C6.21079 7.86362 6.08581 6.7714 6.04755 5.77168L6.04748 5.77168L6.04722 5.7611L6.03322 5.1811L6.0332 5.1811L6.0331 5.17505L6.02427 4.62535L6.01917 4.50799L6.00037 4.24486C5.95609 3.7485 5.85411 3.35058 5.68906 3.09391C5.55723 2.88892 5.37736 2.75 5 2.75C4.83369 2.75 4.72016 2.81061 4.6008 2.96851C4.46117 3.15323 4.34834 3.43694 4.26315 3.78163L4.20774 4.0291L4.18705 4.13935C4.18691 4.14014 4.18677 4.14092 4.18663 4.14171L8.37826 11.0494ZM13.9384 16.758C12.0444 17.2312 10.3668 18.1461 9.10923 18.9965L8.6818 19.2938L8.29659 19.5779L7.95187 19.8436L7.65116 20.0869L7.39493 20.3038L7.18252 20.4891C7.08517 20.5766 7.0487 20.6571 7.03484 20.7188C7.01987 20.7854 7.02454 20.8618 7.05493 20.9414C7.11848 21.1078 7.26625 21.226 7.4277 21.2468L7.49974 21.25H16.077C17.4816 21.25 18.6794 20.5513 19.5952 19.4057L19.5955 19.4053C20.1819 18.6727 20.2204 17.776 19.865 17.09L19.8365 17.0348C19.4686 16.3736 18.7346 15.9333 17.8216 16.0481L17.8186 16.0485C16.5122 16.2074 15.2165 16.4443 13.9384 16.758Z" stroke="#666666" stroke-width="1.5"/>
</g>
</g>
<defs>
<clipPath id="clip0_1203_2731">
<rect width="20" height="20" fill="white" transform="translate(2 2)"/>
</clipPath>
<clipPath id="clip1_1203_2731">
<rect width="24" height="24" fill="white" transform="matrix(-1 0 0 1 24 0)"/>
</clipPath>
</defs>
</svg>
