<svg width="24" height="24" viewBox="0 0 24 24" fill="none" xmlns="http://www.w3.org/2000/svg">
<path fill-rule="evenodd" clip-rule="evenodd" d="M14.2501 5.50001C14.2501 4.7407 14.5161 4.00538 15.0017 3.42167C15.4873 2.83797 16.162 2.44274 16.9087 2.30457C17.6553 2.1664 18.4267 2.29402 19.0891 2.66528C19.7515 3.03654 20.2629 3.628 20.5347 4.337C20.8065 5.046 20.8215 5.82779 20.577 6.54667C20.3325 7.26555 19.8441 7.87615 19.1964 8.27247C18.5487 8.6688 17.7827 8.82584 17.0314 8.71634C16.28 8.60683 15.5907 8.2377 15.0831 7.67301L12.3661 9.15501L9.32606 10.892C9.75107 11.6401 9.86253 12.526 9.63606 13.356L15.0831 16.327C15.616 15.7349 16.3478 15.3592 17.1395 15.2711C17.9312 15.1831 18.7277 15.3889 19.3776 15.8494C20.0276 16.3099 20.4858 16.9932 20.6652 17.7693C20.8446 18.5454 20.7327 19.3604 20.3508 20.0595C19.9688 20.7585 19.3435 21.293 18.5934 21.5613C17.8434 21.8296 17.0209 21.8131 16.2822 21.515C15.5436 21.2168 14.9401 20.6577 14.5865 19.9439C14.2329 19.2301 14.1537 18.4113 14.3641 17.643L8.91706 14.673C8.50193 15.1347 7.96323 15.4679 7.3647 15.633C6.76616 15.7982 6.13285 15.7884 5.53969 15.6049C4.94653 15.4214 4.41834 15.0718 4.01764 14.5975C3.61694 14.1232 3.36048 13.5441 3.27862 12.9286C3.19675 12.3131 3.29291 11.6871 3.55571 11.1245C3.81851 10.562 4.23695 10.0865 4.76152 9.75432C5.28609 9.42214 5.89484 9.24718 6.51573 9.25014C7.13662 9.25309 7.74367 9.43385 8.26506 9.77101L11.6351 7.84501L14.3641 6.35601C14.2882 6.07701 14.2499 5.78914 14.2501 5.50001ZM17.5001 3.75001C17.2702 3.75001 17.0427 3.79527 16.8304 3.88322C16.618 3.97116 16.4251 4.10007 16.2626 4.26257C16.1001 4.42507 15.9712 4.61799 15.8833 4.83031C15.7953 5.04263 15.7501 5.27019 15.7501 5.50001C15.7501 5.72982 15.7953 5.95738 15.8833 6.1697C15.9712 6.38202 16.1001 6.57494 16.2626 6.73744C16.4251 6.89995 16.618 7.02885 16.8304 7.1168C17.0427 7.20474 17.2702 7.25001 17.5001 7.25001C17.9642 7.25001 18.4093 7.06563 18.7375 6.73744C19.0657 6.40926 19.2501 5.96414 19.2501 5.50001C19.2501 5.03588 19.0657 4.59076 18.7375 4.26257C18.4093 3.93438 17.9642 3.75001 17.5001 3.75001ZM6.50006 10.75C6.03593 10.75 5.59081 10.9344 5.26262 11.2626C4.93443 11.5908 4.75006 12.0359 4.75006 12.5C4.75006 12.9641 4.93443 13.4093 5.26262 13.7374C5.59081 14.0656 6.03593 14.25 6.50006 14.25C6.96419 14.25 7.4093 14.0656 7.73749 13.7374C8.06568 13.4093 8.25006 12.9641 8.25006 12.5C8.25006 12.0359 8.06568 11.5908 7.73749 11.2626C7.4093 10.9344 6.96419 10.75 6.50006 10.75ZM15.7501 18.5C15.7501 18.0359 15.9344 17.5908 16.2626 17.2626C16.5908 16.9344 17.0359 16.75 17.5001 16.75C17.9642 16.75 18.4093 16.9344 18.7375 17.2626C19.0657 17.5908 19.2501 18.0359 19.2501 18.5C19.2501 18.9641 19.0657 19.4093 18.7375 19.7374C18.4093 20.0656 17.9642 20.25 17.5001 20.25C17.0359 20.25 16.5908 20.0656 16.2626 19.7374C15.9344 19.4093 15.7501 18.9641 15.7501 18.5Z" fill="#666666"/>
</svg>
