<svg width="24" height="24" viewBox="0 0 24 24" fill="none" xmlns="http://www.w3.org/2000/svg">
<path d="M17.2015 5.93382C16.8448 5.62936 16.319 5.68103 15.9874 6.01263C15.5414 6.45857 15.6376 7.20573 16.0991 7.63553C16.5441 8.04996 16.9249 8.53163 17.2266 9.06516C17.733 9.96046 17.9994 10.9714 18 12C18 13.5913 17.3679 15.1174 16.2426 16.2426C15.1174 17.3679 13.5913 18 12 18C10.4087 18 8.88258 17.3679 7.75736 16.2426C6.63214 15.1174 6 13.5913 6 12C6 10.2709 6.73651 8.71959 7.90597 7.6243C8.36332 7.19596 8.45486 6.45486 8.01178 6.01178C7.68055 5.68055 7.15547 5.62846 6.79886 5.9322C6.02606 6.59044 5.38432 7.39213 4.91058 8.29555C4.31132 9.43832 3.99882 10.7096 4 12C4 14.1217 4.84286 16.1566 6.34315 17.6569C7.84344 19.1571 9.87827 20 12 20C14.1217 20 16.1566 19.1571 17.6569 17.6569C19.1571 16.1566 20 14.1217 20 12C20 9.57071 18.9152 7.39666 17.2015 5.93382Z" fill="#666666"/>
<rect x="11" y="4" width="2" height="10" rx="1" fill="#666666"/>
</svg>
