<svg width="24" height="24" viewBox="0 0 24 24" fill="none" xmlns="http://www.w3.org/2000/svg">
<path d="M7 6H17C17.62 6 18.17 6.02 18.66 6.09C21.29 6.38 22 7.62 22 11V13C22 16.38 21.29 17.62 18.66 17.91C18.17 17.98 17.62 18 17 18H7C6.38 18 5.83 17.98 5.34 17.91C2.71 17.62 2 16.38 2 13V11C2 7.62 2.71 6.38 5.34 6.09C5.83 6.02 6.38 6 7 6Z" stroke="#666666" stroke-width="1.5" stroke-linecap="round" stroke-linejoin="round"/>
<path d="M17 18C17.62 18 18.17 17.98 18.66 17.91C18.67 18.05 18.67 18.18 18.67 18.33V18.67C18.67 21.33 18 22 15.33 22H8.66999C5.99999 22 5.32999 21.33 5.32999 18.67V18.33C5.32999 18.18 5.32999 18.05 5.33999 17.91C5.82999 17.98 6.37999 18 6.99999 18H17Z" stroke="#666666" stroke-width="1.5" stroke-linecap="round" stroke-linejoin="round"/>
<path d="M8.66999 2H15.33C18 2 18.67 2.67 18.67 5.33V5.67C18.67 5.82 18.67 5.95 18.66 6.09C18.17 6.02 17.62 6 17 6H6.99999C6.37999 6 5.82999 6.02 5.33999 6.09C5.32999 5.95 5.32999 5.82 5.32999 5.67V5.33C5.32999 2.67 5.99999 2 8.66999 2Z" stroke="#666666" stroke-width="1.5" stroke-linecap="round" stroke-linejoin="round"/>
</svg>
